<svg width="384" height="38" viewBox="0 0 384 38" fill="none" xmlns="http://www.w3.org/2000/svg">
<path d="M2.752 12C2.54933 12 2.34133 12.0107 2.128 12.032C1.91467 12.0533 1.71733 12.0747 1.536 12.096C1.35467 12.1173 1.20533 12.1387 1.088 12.16C0.981333 12.1813 0.928 12.192 0.928 12.192L1.024 11.456C1.52533 11.36 1.856 11.2213 2.016 11.04C2.18667 10.848 2.272 10.528 2.272 10.08L2.288 3.36C2.288 3.01867 2.25067 2.78933 2.176 2.672C2.10133 2.55467 1.94133 2.496 1.696 2.496C1.6 2.496 1.48267 2.50133 1.344 2.512C1.216 2.52267 1.152 2.528 1.152 2.528L1.12 2.464L1.232 1.76C1.232 1.76 1.29067 1.76533 1.408 1.776C1.536 1.776 1.696 1.78133 1.888 1.792C2.08 1.792 2.27733 1.79733 2.48 1.808C2.68267 1.808 2.85867 1.808 3.008 1.808C3.12533 1.808 3.264 1.808 3.424 1.808C3.584 1.79733 3.74933 1.792 3.92 1.792C4.09067 1.78133 4.25067 1.776 4.4 1.776C4.54933 1.76533 4.66667 1.76 4.752 1.76C4.848 1.74933 4.896 1.744 4.896 1.744C5.90933 1.744 6.688 1.952 7.232 2.368C7.776 2.784 8.048 3.38667 8.048 4.176C8.048 4.69867 7.888 5.17867 7.568 5.616C7.248 6.04267 6.78933 6.384 6.192 6.64C6.71467 6.74667 7.15733 6.91733 7.52 7.152C7.89333 7.38667 8.176 7.66933 8.368 8C8.57067 8.32 8.672 8.67733 8.672 9.072C8.672 9.62667 8.496 10.1387 8.144 10.608C7.80267 11.0773 7.344 11.456 6.768 11.744C6.20267 12.0213 5.584 12.16 4.912 12.16C4.74133 12.16 4.56533 12.1493 4.384 12.128C4.21333 12.1173 4.04267 12.1013 3.872 12.08C3.70133 12.0587 3.52 12.0373 3.328 12.016C3.14667 12.0053 2.95467 12 2.752 12ZM3.472 7.232L3.408 10.224C3.408 10.6293 3.54667 10.9173 3.824 11.088C4.10133 11.2587 4.57067 11.344 5.232 11.344C5.872 11.344 6.37333 11.168 6.736 10.816C7.10933 10.4533 7.296 9.968 7.296 9.36C7.296 8.176 6.576 7.456 5.136 7.2L3.472 7.232ZM3.504 6.384C3.504 6.384 3.57867 6.38933 3.728 6.4C3.888 6.41067 4.07467 6.42667 4.288 6.448C4.50133 6.46933 4.69867 6.48533 4.88 6.496C5.06133 6.50667 5.184 6.512 5.248 6.512C5.248 6.512 5.32267 6.48533 5.472 6.432C5.62133 6.368 5.79733 6.26667 6 6.128C6.20267 5.97867 6.37867 5.77067 6.528 5.504C6.67733 5.22667 6.752 4.87467 6.752 4.448C6.752 3.75467 6.52267 3.248 6.064 2.928C5.60533 2.59733 4.896 2.432 3.936 2.432C3.82933 2.432 3.75467 2.45867 3.712 2.512C3.68 2.55467 3.65867 2.65067 3.648 2.8C3.62667 3.14133 3.60533 3.50933 3.584 3.904C3.57333 4.288 3.55733 4.688 3.536 5.104C3.52533 5.50933 3.51467 5.936 3.504 6.384ZM13.0706 12.192C12.4626 12.192 11.924 12.0427 11.4546 11.744C10.9853 11.4453 10.6173 11.0293 10.3506 10.496C10.0946 9.952 9.96663 9.33333 9.96663 8.64C9.96663 7.872 10.1266 7.184 10.4466 6.576C10.7773 5.95733 11.2253 5.472 11.7906 5.12C12.356 4.75733 12.9853 4.576 13.6786 4.576C14.2866 4.576 14.8253 4.72533 15.2946 5.024C15.764 5.32267 16.1266 5.73867 16.3826 6.272C16.6493 6.80533 16.7826 7.424 16.7826 8.128C16.7826 8.88533 16.6173 9.57333 16.2866 10.192C15.9666 10.8107 15.524 11.3013 14.9586 11.664C14.404 12.016 13.7746 12.192 13.0706 12.192ZM13.5186 11.408C14.116 11.408 14.5906 11.168 14.9426 10.688C15.2946 10.1973 15.4706 9.536 15.4706 8.704C15.4706 8.064 15.3746 7.49867 15.1826 7.008C14.9906 6.51733 14.724 6.13333 14.3826 5.856C14.0413 5.57867 13.6466 5.44 13.1986 5.44C12.6013 5.44 12.1266 5.68533 11.7746 6.176C11.4226 6.66667 11.2466 7.33333 11.2466 8.176C11.2466 8.816 11.3426 9.38133 11.5346 9.872C11.7266 10.352 11.9933 10.7307 12.3346 11.008C12.676 11.2747 13.0706 11.408 13.5186 11.408ZM22.5914 11.536C22.9114 11.4507 23.1407 11.328 23.2794 11.168C23.418 10.9973 23.4874 10.7733 23.4874 10.496L23.5514 7.328C23.5514 6.79467 23.434 6.384 23.1994 6.096C22.9754 5.808 22.65 5.664 22.2234 5.664C21.9674 5.664 21.706 5.71733 21.4394 5.824C21.1727 5.93067 20.9327 6.048 20.7194 6.176C20.5167 6.304 20.362 6.41067 20.2554 6.496C20.2447 6.77333 20.2287 7.104 20.2074 7.488C20.1967 7.86133 20.1807 8.24533 20.1594 8.64C20.1487 9.03467 20.138 9.392 20.1274 9.712C20.1167 10.032 20.1114 10.272 20.1114 10.432C20.1114 10.7627 20.154 10.9973 20.2394 11.136C20.3354 11.264 20.4847 11.328 20.6874 11.328C20.7834 11.328 20.9007 11.3227 21.0394 11.312C21.178 11.3013 21.2474 11.296 21.2474 11.296L21.2794 11.36L21.1354 12.048C21.1354 12.048 21.0554 12.0427 20.8954 12.032C20.7354 12.0213 20.5434 12.0107 20.3194 12C20.0954 12 19.882 12 19.6794 12C19.4554 12 19.2207 12.0053 18.9754 12.016C18.73 12.0373 18.522 12.0533 18.3514 12.064C18.1807 12.0853 18.0954 12.096 18.0954 12.096L18.1754 11.44C18.4847 11.3867 18.7034 11.2907 18.8314 11.152C18.9594 11.0133 19.0234 10.7947 19.0234 10.496V6.592C19.0234 6.22933 18.9647 5.97867 18.8474 5.84C18.73 5.69067 18.5274 5.616 18.2394 5.616H18.0634L18.0154 5.552L18.0634 5.024C18.4367 4.96 18.794 4.896 19.1354 4.832C19.4767 4.75733 19.754 4.69333 19.9674 4.64C20.1914 4.58667 20.3034 4.56 20.3034 4.56L20.3994 4.688C20.3994 4.688 20.3727 4.79467 20.3194 5.008C20.2767 5.22133 20.2447 5.46667 20.2234 5.744L20.2554 5.792C20.3514 5.728 20.5007 5.632 20.7034 5.504C20.9167 5.36533 21.1407 5.22667 21.3754 5.088C21.6207 4.94933 21.8554 4.832 22.0794 4.736C22.3034 4.62933 22.4794 4.576 22.6074 4.576C23.2794 4.576 23.8127 4.76267 24.2074 5.136C24.602 5.50933 24.7994 6.01067 24.7994 6.64C24.7994 6.77867 24.7887 7.008 24.7674 7.328C24.746 7.648 24.7194 8.00533 24.6874 8.4C24.6554 8.79467 24.6287 9.17333 24.6074 9.536C24.586 9.89867 24.5754 10.1973 24.5754 10.432C24.5754 10.7413 24.618 10.9707 24.7034 11.12C24.7887 11.2587 24.9327 11.328 25.1354 11.328C25.2314 11.328 25.3487 11.3227 25.4874 11.312C25.626 11.3013 25.6954 11.296 25.6954 11.296L25.7274 11.36L25.5994 12.048C25.5994 12.048 25.5514 12.0427 25.4554 12.032C25.37 12.032 25.2527 12.0267 25.1034 12.016C24.9647 12.016 24.81 12.0107 24.6394 12C24.4794 12 24.3247 12 24.1754 12C24.0047 12 23.8234 12.0107 23.6314 12.032C23.45 12.0533 23.274 12.0747 23.1034 12.096C22.9327 12.1173 22.794 12.1387 22.6874 12.16C22.5807 12.1813 22.5274 12.192 22.5274 12.192L22.5914 11.536ZM31.357 11.536C31.677 11.4507 31.9063 11.328 32.045 11.168C32.1837 10.9973 32.253 10.7733 32.253 10.496L32.317 7.328C32.317 6.79467 32.1997 6.384 31.965 6.096C31.741 5.808 31.4157 5.664 30.989 5.664C30.733 5.664 30.4717 5.71733 30.205 5.824C29.9383 5.93067 29.6983 6.048 29.485 6.176C29.2823 6.304 29.1277 6.41067 29.021 6.496C29.0103 6.77333 28.9943 7.104 28.973 7.488C28.9623 7.86133 28.9463 8.24533 28.925 8.64C28.9143 9.03467 28.9037 9.392 28.893 9.712C28.8823 10.032 28.877 10.272 28.877 10.432C28.877 10.7627 28.9197 10.9973 29.005 11.136C29.101 11.264 29.2503 11.328 29.453 11.328C29.549 11.328 29.6663 11.3227 29.805 11.312C29.9437 11.3013 30.013 11.296 30.013 11.296L30.045 11.36L29.901 12.048C29.901 12.048 29.821 12.0427 29.661 12.032C29.501 12.0213 29.309 12.0107 29.085 12C28.861 12 28.6477 12 28.445 12C28.221 12 27.9863 12.0053 27.741 12.016C27.4957 12.0373 27.2877 12.0533 27.117 12.064C26.9463 12.0853 26.861 12.096 26.861 12.096L26.941 11.44C27.2503 11.3867 27.469 11.2907 27.597 11.152C27.725 11.0133 27.789 10.7947 27.789 10.496V6.592C27.789 6.22933 27.7303 5.97867 27.613 5.84C27.4957 5.69067 27.293 5.616 27.005 5.616H26.829L26.781 5.552L26.829 5.024C27.2023 4.96 27.5597 4.896 27.901 4.832C28.2423 4.75733 28.5197 4.69333 28.733 4.64C28.957 4.58667 29.069 4.56 29.069 4.56L29.165 4.688C29.165 4.688 29.1383 4.79467 29.085 5.008C29.0423 5.22133 29.0103 5.46667 28.989 5.744L29.021 5.792C29.117 5.728 29.2663 5.632 29.469 5.504C29.6823 5.36533 29.9063 5.22667 30.141 5.088C30.3863 4.94933 30.621 4.832 30.845 4.736C31.069 4.62933 31.245 4.576 31.373 4.576C32.045 4.576 32.5783 4.76267 32.973 5.136C33.3677 5.50933 33.565 6.01067 33.565 6.64C33.565 6.77867 33.5543 7.008 33.533 7.328C33.5117 7.648 33.485 8.00533 33.453 8.4C33.421 8.79467 33.3943 9.17333 33.373 9.536C33.3517 9.89867 33.341 10.1973 33.341 10.432C33.341 10.7413 33.3837 10.9707 33.469 11.12C33.5543 11.2587 33.6983 11.328 33.901 11.328C33.997 11.328 34.1143 11.3227 34.253 11.312C34.3917 11.3013 34.461 11.296 34.461 11.296L34.493 11.36L34.365 12.048C34.365 12.048 34.317 12.0427 34.221 12.032C34.1357 12.032 34.0183 12.0267 33.869 12.016C33.7303 12.016 33.5757 12.0107 33.405 12C33.245 12 33.0903 12 32.941 12C32.7703 12 32.589 12.0107 32.397 12.032C32.2157 12.0533 32.0397 12.0747 31.869 12.096C31.6983 12.1173 31.5597 12.1387 31.453 12.16C31.3463 12.1813 31.293 12.192 31.293 12.192L31.357 11.536ZM38.8266 12.192C38.1546 12.192 37.568 12.0427 37.0666 11.744C36.5653 11.4453 36.1706 11.0347 35.8826 10.512C35.6053 9.97867 35.4666 9.36 35.4666 8.656C35.4666 8.112 35.5573 7.59467 35.7386 7.104C35.9306 6.61333 36.192 6.18133 36.5226 5.808C36.8533 5.424 37.2266 5.12533 37.6426 4.912C38.0693 4.688 38.5226 4.576 39.0026 4.576C40.592 4.576 41.3866 5.34933 41.3866 6.896C41.3866 7.03467 41.376 7.17867 41.3546 7.328C41.3333 7.47733 41.312 7.59467 41.2906 7.68L41.0826 7.872H36.6666C36.656 8.82133 36.8266 9.57333 37.1786 10.128C37.5413 10.672 38.048 10.992 38.6986 11.088C39.3493 11.1733 40.1173 11.0133 41.0026 10.608L41.0986 10.64L41.2746 11.104C41.0613 11.2533 40.8053 11.4133 40.5066 11.584C40.2186 11.7547 39.9253 11.8987 39.6266 12.016C39.328 12.1333 39.0613 12.192 38.8266 12.192ZM36.7306 7.28L39.6266 7.136C39.7866 7.11467 39.8933 7.07733 39.9466 7.024C40 6.97067 40.0266 6.864 40.0266 6.704C40.0266 6.27733 39.9093 5.952 39.6746 5.728C39.4506 5.504 39.1253 5.392 38.6986 5.392C38.208 5.392 37.7813 5.56267 37.4186 5.904C37.056 6.23467 36.8266 6.69333 36.7306 7.28ZM49.1544 12.192C48.4824 12.192 47.8957 12.048 47.3944 11.76C46.893 11.4613 46.5037 11.0507 46.2264 10.528C45.949 9.99467 45.8104 9.37067 45.8104 8.656C45.8104 7.888 45.9704 7.2 46.2904 6.592C46.621 5.97333 47.0637 5.48267 47.6184 5.12C48.1837 4.75733 48.813 4.576 49.5064 4.576C49.8477 4.576 50.157 4.60267 50.4344 4.656C50.7224 4.69867 50.9517 4.74667 51.1224 4.8C51.293 4.85333 51.3784 4.88 51.3784 4.88L51.4264 4.992C51.4264 4.992 51.3997 5.088 51.3464 5.28C51.3037 5.472 51.2557 5.73867 51.2024 6.08C51.149 6.41067 51.1117 6.784 51.0904 7.2L50.4344 7.248V6.752C50.4344 6.35733 50.3117 6.04267 50.0664 5.808C49.8317 5.56267 49.517 5.44 49.1224 5.44C48.4717 5.44 47.9704 5.67467 47.6184 6.144C47.2664 6.60267 47.0904 7.25867 47.0904 8.112C47.0904 9.04 47.2824 9.776 47.6664 10.32C48.061 10.8533 48.5944 11.12 49.2664 11.12C49.565 11.12 49.853 11.0773 50.1304 10.992C50.4077 10.896 50.6317 10.8053 50.8024 10.72C50.9837 10.6347 51.0744 10.592 51.0744 10.592L51.1704 10.624L51.3464 11.12C51.3464 11.12 51.2717 11.1733 51.1224 11.28C50.973 11.3867 50.781 11.5147 50.5464 11.664C50.3117 11.8027 50.0664 11.9253 49.8104 12.032C49.565 12.1387 49.3464 12.192 49.1544 12.192ZM52.5756 11.376C52.885 11.344 53.0983 11.264 53.2156 11.136C53.3436 11.008 53.4076 10.7947 53.4076 10.496V1.984C53.4076 1.696 53.3596 1.488 53.2636 1.36C53.1783 1.22133 53.029 1.152 52.8156 1.152H52.4796L52.4156 1.104L52.4796 0.591999C52.725 0.559999 52.9916 0.517333 53.2796 0.464C53.5783 0.410666 53.8663 0.357333 54.1436 0.304C54.421 0.239999 54.6556 0.181333 54.8476 0.127999L54.9436 0.335999C54.901 0.410666 54.853 0.693332 54.7996 1.184C54.7463 1.67467 54.6983 2.32 54.6556 3.12C54.6236 3.92 54.5916 4.82133 54.5596 5.824C54.6343 5.77067 54.7676 5.68 54.9596 5.552C55.1623 5.41333 55.3863 5.26933 55.6316 5.12C55.8876 4.97067 56.133 4.84267 56.3676 4.736C56.613 4.62933 56.8103 4.576 56.9596 4.576C57.653 4.576 58.1916 4.75733 58.5756 5.12C58.9596 5.472 59.1516 5.97867 59.1516 6.64C59.1516 6.77867 59.1356 7.008 59.1036 7.328C59.0823 7.648 59.0556 8.00533 59.0236 8.4C58.9916 8.79467 58.9596 9.17333 58.9276 9.536C58.9063 9.89867 58.8956 10.1973 58.8956 10.432C58.8956 10.7413 58.9383 10.9707 59.0236 11.12C59.109 11.2587 59.253 11.328 59.4556 11.328C59.5196 11.328 59.605 11.328 59.7116 11.328C59.829 11.3173 59.9303 11.3067 60.0156 11.296L60.0476 11.36L59.9196 12.048C59.749 12.0373 59.5196 12.0267 59.2316 12.016C58.9543 12.0053 58.709 12 58.4956 12C58.3676 12 58.213 12.0053 58.0316 12.016C57.8503 12.0373 57.6583 12.0587 57.4556 12.08C57.253 12.112 57.0503 12.1493 56.8476 12.192L56.9116 11.536C57.2316 11.4507 57.461 11.328 57.5996 11.168C57.7383 10.9973 57.8076 10.7733 57.8076 10.496L57.9036 7.328C57.9036 6.79467 57.7863 6.384 57.5516 6.096C57.3276 5.808 57.0023 5.664 56.5756 5.664C56.309 5.664 55.9783 5.74933 55.5836 5.92C55.1996 6.09067 54.853 6.29867 54.5436 6.544C54.533 6.93867 54.5223 7.34933 54.5116 7.776C54.5116 8.20267 54.5063 8.64 54.4956 9.088C54.4956 9.52533 54.4956 9.97333 54.4956 10.432C54.4956 10.7627 54.5383 10.9973 54.6236 11.136C54.7196 11.264 54.869 11.328 55.0716 11.328C55.1356 11.328 55.221 11.328 55.3276 11.328C55.445 11.3173 55.5463 11.3067 55.6316 11.296L55.6636 11.36L55.5196 12.048C55.3383 12.0373 55.1036 12.0267 54.8156 12.016C54.5276 12.0053 54.277 12 54.0636 12C53.8396 12 53.573 12 53.2636 12C52.965 12.0107 52.7036 12.0213 52.4796 12.032L52.5756 11.376ZM66.5145 12.192C66.0878 12.192 65.7518 12.0853 65.5065 11.872C65.2718 11.648 65.1332 11.3227 65.0905 10.896L65.0265 10.88C64.7705 11.136 64.5252 11.36 64.2905 11.552C64.0665 11.7333 63.8638 11.8773 63.6825 11.984C63.5118 12.08 63.3732 12.128 63.2665 12.128C62.8718 12.128 62.5198 12.0427 62.2105 11.872C61.9012 11.7013 61.6558 11.4667 61.4745 11.168C61.3038 10.8693 61.2185 10.528 61.2185 10.144C61.2185 9.83467 61.2932 9.56267 61.4425 9.328C61.6025 9.09333 61.8105 8.93867 62.0665 8.864L65.1065 8.032L65.1225 7.328C65.1225 6.79467 64.9998 6.37867 64.7545 6.08C64.5092 5.78133 64.1625 5.632 63.7145 5.632C63.4158 5.632 63.1012 5.70133 62.7705 5.84C62.4398 5.97867 62.1145 6.176 61.7945 6.432L61.7145 6.384L61.5225 5.696C61.7998 5.536 62.1092 5.37067 62.4505 5.2C62.7918 5.01867 63.1172 4.86933 63.4265 4.752C63.7358 4.63467 63.9705 4.576 64.1305 4.576C64.5998 4.576 64.9998 4.66133 65.3305 4.832C65.6612 4.992 65.9118 5.22667 66.0825 5.536C66.2638 5.83467 66.3545 6.20267 66.3545 6.64C66.3545 6.77867 66.3385 7.00267 66.3065 7.312C66.2852 7.62133 66.2532 7.968 66.2105 8.352C66.1678 8.72533 66.1305 9.088 66.0985 9.44C66.0772 9.792 66.0665 10.0853 66.0665 10.32C66.0665 10.5547 66.1252 10.736 66.2425 10.864C66.3598 10.992 66.5198 11.056 66.7225 11.056C66.9038 11.056 67.0852 11.0133 67.2665 10.928C67.4478 10.832 67.5865 10.7413 67.6825 10.656L67.9065 10.912C67.8212 11.0507 67.7038 11.2107 67.5545 11.392C67.4158 11.5627 67.2558 11.7227 67.0745 11.872C66.9038 12.0213 66.7172 12.128 66.5145 12.192ZM63.5385 11.04C63.7412 11.04 63.9758 10.9707 64.2425 10.832C64.5198 10.6827 64.7705 10.496 64.9945 10.272L65.0745 8.64L62.8985 9.296C62.5892 9.392 62.4345 9.616 62.4345 9.968C62.4345 10.2667 62.5358 10.5227 62.7385 10.736C62.9518 10.9387 63.2185 11.04 63.5385 11.04ZM73.2476 11.536C73.5676 11.4507 73.797 11.328 73.9356 11.168C74.0743 10.9973 74.1436 10.7733 74.1436 10.496L74.2076 7.328C74.2076 6.79467 74.0903 6.384 73.8556 6.096C73.6316 5.808 73.3063 5.664 72.8796 5.664C72.6236 5.664 72.3623 5.71733 72.0956 5.824C71.829 5.93067 71.589 6.048 71.3756 6.176C71.173 6.304 71.0183 6.41067 70.9116 6.496C70.901 6.77333 70.885 7.104 70.8636 7.488C70.853 7.86133 70.837 8.24533 70.8156 8.64C70.805 9.03467 70.7943 9.392 70.7836 9.712C70.773 10.032 70.7676 10.272 70.7676 10.432C70.7676 10.7627 70.8103 10.9973 70.8956 11.136C70.9916 11.264 71.141 11.328 71.3436 11.328C71.4396 11.328 71.557 11.3227 71.6956 11.312C71.8343 11.3013 71.9036 11.296 71.9036 11.296L71.9356 11.36L71.7916 12.048C71.7916 12.048 71.7116 12.0427 71.5516 12.032C71.3916 12.0213 71.1996 12.0107 70.9756 12C70.7516 12 70.5383 12 70.3356 12C70.1116 12 69.877 12.0053 69.6316 12.016C69.3863 12.0373 69.1783 12.0533 69.0076 12.064C68.837 12.0853 68.7516 12.096 68.7516 12.096L68.8316 11.44C69.141 11.3867 69.3596 11.2907 69.4876 11.152C69.6156 11.0133 69.6796 10.7947 69.6796 10.496V6.592C69.6796 6.22933 69.621 5.97867 69.5036 5.84C69.3863 5.69067 69.1836 5.616 68.8956 5.616H68.7196L68.6716 5.552L68.7196 5.024C69.093 4.96 69.4503 4.896 69.7916 4.832C70.133 4.75733 70.4103 4.69333 70.6236 4.64C70.8476 4.58667 70.9596 4.56 70.9596 4.56L71.0556 4.688C71.0556 4.688 71.029 4.79467 70.9756 5.008C70.933 5.22133 70.901 5.46667 70.8796 5.744L70.9116 5.792C71.0076 5.728 71.157 5.632 71.3596 5.504C71.573 5.36533 71.797 5.22667 72.0316 5.088C72.277 4.94933 72.5116 4.832 72.7356 4.736C72.9596 4.62933 73.1356 4.576 73.2636 4.576C73.9356 4.576 74.469 4.76267 74.8636 5.136C75.2583 5.50933 75.4556 6.01067 75.4556 6.64C75.4556 6.77867 75.445 7.008 75.4236 7.328C75.4023 7.648 75.3756 8.00533 75.3436 8.4C75.3116 8.79467 75.285 9.17333 75.2636 9.536C75.2423 9.89867 75.2316 10.1973 75.2316 10.432C75.2316 10.7413 75.2743 10.9707 75.3596 11.12C75.445 11.2587 75.589 11.328 75.7916 11.328C75.8876 11.328 76.005 11.3227 76.1436 11.312C76.2823 11.3013 76.3516 11.296 76.3516 11.296L76.3836 11.36L76.2556 12.048C76.2556 12.048 76.2076 12.0427 76.1116 12.032C76.0263 12.032 75.909 12.0267 75.7596 12.016C75.621 12.016 75.4663 12.0107 75.2956 12C75.1356 12 74.981 12 74.8316 12C74.661 12 74.4796 12.0107 74.2876 12.032C74.1063 12.0533 73.9303 12.0747 73.7596 12.096C73.589 12.1173 73.4503 12.1387 73.3436 12.16C73.237 12.1813 73.1836 12.192 73.1836 12.192L73.2476 11.536ZM80.7013 12.192C80.0293 12.192 79.4426 12.048 78.9413 11.76C78.4399 11.4613 78.0506 11.0507 77.7733 10.528C77.4959 9.99467 77.3573 9.37067 77.3573 8.656C77.3573 7.888 77.5173 7.2 77.8372 6.592C78.1679 5.97333 78.6106 5.48267 79.1653 5.12C79.7306 4.75733 80.3599 4.576 81.0533 4.576C81.3946 4.576 81.7039 4.60267 81.9813 4.656C82.2693 4.69867 82.4986 4.74667 82.6693 4.8C82.8399 4.85333 82.9253 4.88 82.9253 4.88L82.9733 4.992C82.9733 4.992 82.9466 5.088 82.8933 5.28C82.8506 5.472 82.8026 5.73867 82.7493 6.08C82.6959 6.41067 82.6586 6.784 82.6373 7.2L81.9813 7.248V6.752C81.9813 6.35733 81.8586 6.04267 81.6133 5.808C81.3786 5.56267 81.0639 5.44 80.6693 5.44C80.0186 5.44 79.5173 5.67467 79.1653 6.144C78.8133 6.60267 78.6373 7.25867 78.6373 8.112C78.6373 9.04 78.8293 9.776 79.2133 10.32C79.6079 10.8533 80.1413 11.12 80.8133 11.12C81.1119 11.12 81.3999 11.0773 81.6773 10.992C81.9546 10.896 82.1786 10.8053 82.3493 10.72C82.5306 10.6347 82.6213 10.592 82.6213 10.592L82.7173 10.624L82.8933 11.12C82.8933 11.12 82.8186 11.1733 82.6693 11.28C82.5199 11.3867 82.3279 11.5147 82.0933 11.664C81.8586 11.8027 81.6133 11.9253 81.3573 12.032C81.1119 12.1387 80.8933 12.192 80.7013 12.192ZM87.2641 12.192C86.5921 12.192 86.0055 12.0427 85.5041 11.744C85.0028 11.4453 84.6081 11.0347 84.3201 10.512C84.0428 9.97867 83.9041 9.36 83.9041 8.656C83.9041 8.112 83.9948 7.59467 84.1761 7.104C84.3681 6.61333 84.6295 6.18133 84.9601 5.808C85.2908 5.424 85.6641 5.12533 86.0801 4.912C86.5068 4.688 86.9601 4.576 87.4401 4.576C89.0295 4.576 89.8241 5.34933 89.8241 6.896C89.8241 7.03467 89.8135 7.17867 89.7921 7.328C89.7708 7.47733 89.7495 7.59467 89.7281 7.68L89.5201 7.872H85.1041C85.0935 8.82133 85.2641 9.57333 85.6161 10.128C85.9788 10.672 86.4855 10.992 87.1361 11.088C87.7868 11.1733 88.5548 11.0133 89.4401 10.608L89.5361 10.64L89.7121 11.104C89.4988 11.2533 89.2428 11.4133 88.9441 11.584C88.6561 11.7547 88.3628 11.8987 88.0641 12.016C87.7655 12.1333 87.4988 12.192 87.2641 12.192ZM85.1681 7.28L88.0641 7.136C88.2241 7.11467 88.3308 7.07733 88.3841 7.024C88.4375 6.97067 88.4641 6.864 88.4641 6.704C88.4641 6.27733 88.3468 5.952 88.1121 5.728C87.8881 5.504 87.5628 5.392 87.1361 5.392C86.6455 5.392 86.2188 5.56267 85.8561 5.904C85.4935 6.23467 85.2641 6.69333 85.1681 7.28ZM92.3996 12.192C92.101 12.192 91.877 12.1013 91.7276 11.92C91.5783 11.728 91.5036 11.5147 91.5036 11.28C91.5036 11.0027 91.5943 10.768 91.7756 10.576C91.957 10.384 92.197 10.288 92.4956 10.288C92.7943 10.288 93.0183 10.3787 93.1676 10.56C93.3276 10.7413 93.4076 10.9547 93.4076 11.2C93.4076 11.4667 93.317 11.7013 93.1356 11.904C92.9543 12.096 92.709 12.192 92.3996 12.192ZM3.504 34.192C3.00267 34.192 2.56 34.144 2.176 34.048C1.80267 33.9627 1.50933 33.8773 1.296 33.792C1.09333 33.696 0.992 33.648 0.992 33.648L0.912 33.488C0.912 33.488 0.922667 33.4187 0.944 33.28C0.965333 33.1307 0.986667 32.9333 1.008 32.688C1.02933 32.432 1.05067 32.1333 1.072 31.792C1.09333 31.4507 1.104 31.088 1.104 30.704L1.824 30.624C1.824 31.392 1.87733 31.9787 1.984 32.384C2.09067 32.7787 2.29333 33.0507 2.592 33.2C2.89067 33.3387 3.328 33.408 3.904 33.408C4.56533 33.408 5.09867 33.2533 5.504 32.944C5.92 32.624 6.128 32.192 6.128 31.648C6.128 31.296 6.01067 30.992 5.776 30.736C5.54133 30.48 5.23733 30.2453 4.864 30.032C4.50133 29.8187 4.112 29.6053 3.696 29.392C3.26933 29.168 2.85333 28.928 2.448 28.672C2.05333 28.416 1.728 28.1227 1.472 27.792C1.216 27.4507 1.088 27.0507 1.088 26.592C1.088 26.0267 1.248 25.52 1.568 25.072C1.89867 24.624 2.34133 24.272 2.896 24.016C3.45067 23.7493 4.07467 23.616 4.768 23.616C5.248 23.616 5.66933 23.648 6.032 23.712C6.40533 23.776 6.69333 23.8453 6.896 23.92C7.10933 23.984 7.216 24.016 7.216 24.016L7.264 24.112C7.264 24.112 7.23733 24.2347 7.184 24.48C7.14133 24.7253 7.09333 25.056 7.04 25.472C6.98667 25.8773 6.944 26.3253 6.912 26.816L6.288 26.88L6.192 26.8C6.192 26.8 6.19733 26.7253 6.208 26.576C6.22933 26.416 6.24 26.2133 6.24 25.968C6.24 25.4027 6.10133 25.0133 5.824 24.8C5.55733 24.5867 5.06133 24.48 4.336 24.48C3.74933 24.48 3.264 24.6293 2.88 24.928C2.50667 25.216 2.32 25.5787 2.32 26.016C2.32 26.336 2.42133 26.624 2.624 26.88C2.82667 27.1253 3.09333 27.3493 3.424 27.552C3.75467 27.7547 4.112 27.9573 4.496 28.16C4.96533 28.3947 5.424 28.6453 5.872 28.912C6.33067 29.1787 6.70933 29.4827 7.008 29.824C7.30667 30.1653 7.456 30.5813 7.456 31.072C7.456 31.68 7.28533 32.2187 6.944 32.688C6.61333 33.1573 6.14933 33.5253 5.552 33.792C4.96533 34.0587 4.28267 34.192 3.504 34.192ZM9.03213 34.192L9.09613 33.536C9.41613 33.4507 9.64546 33.328 9.78413 33.168C9.92279 32.9973 9.99213 32.7733 9.99213 32.496V28.432C9.99213 28.1333 9.94413 27.9147 9.84813 27.776C9.75213 27.6373 9.60279 27.568 9.40013 27.568C9.31479 27.568 9.22413 27.5787 9.12813 27.6C9.04279 27.6213 9.00013 27.632 9.00013 27.632L9.06413 27.04C9.33079 26.9973 9.59746 26.9493 9.86413 26.896C10.1415 26.8427 10.3921 26.7947 10.6161 26.752C10.8401 26.6987 11.0215 26.656 11.1601 26.624C11.2988 26.592 11.3681 26.576 11.3681 26.576L11.4481 26.768C11.4055 26.8747 11.3575 27.1147 11.3041 27.488C11.2615 27.8507 11.2241 28.2987 11.1921 28.832C11.1601 29.3547 11.1335 29.9307 11.1121 30.56C11.0908 31.1787 11.0801 31.8027 11.0801 32.432C11.0801 32.7413 11.1228 32.9707 11.2081 33.12C11.2935 33.2587 11.4375 33.328 11.6401 33.328C11.7361 33.328 11.8535 33.3227 11.9921 33.312C12.1308 33.3013 12.2001 33.296 12.2001 33.296L12.2321 33.36L12.1041 34.048C12.1041 34.048 12.0561 34.0427 11.9601 34.032C11.8748 34.032 11.7575 34.0267 11.6081 34.016C11.4695 34.016 11.3148 34.0107 11.1441 34C10.9841 34 10.8295 34 10.6801 34C10.4561 34 10.2161 34.016 9.96013 34.048C9.70413 34.08 9.48546 34.112 9.30413 34.144C9.12279 34.176 9.03213 34.192 9.03213 34.192ZM10.4401 24.688C10.1735 24.688 9.97613 24.6027 9.84813 24.432C9.72013 24.2613 9.65613 24.0747 9.65613 23.872C9.65613 23.616 9.74679 23.3973 9.92813 23.216C10.1095 23.024 10.3335 22.928 10.6001 22.928C10.8561 22.928 11.0481 23.0133 11.1761 23.184C11.3148 23.344 11.3841 23.5307 11.3841 23.744C11.3841 24 11.2935 24.224 11.1121 24.416C10.9415 24.5973 10.7175 24.688 10.4401 24.688ZM18.9276 34.272C18.9276 34.272 18.8903 34.1547 18.8156 33.92C18.741 33.6853 18.645 33.376 18.5276 32.992C18.4103 32.608 18.277 32.1867 18.1276 31.728C17.9783 31.2693 17.829 30.8107 17.6796 30.352C17.541 29.8827 17.4076 29.456 17.2796 29.072C17.1516 28.6773 17.0503 28.368 16.9756 28.144C16.7943 27.632 16.4316 27.3653 15.8876 27.344L15.8556 27.28L15.9516 26.752C15.9516 26.752 16.037 26.752 16.2076 26.752C16.3783 26.752 16.5703 26.7573 16.7836 26.768C16.997 26.768 17.1623 26.768 17.2796 26.768C17.6103 26.768 17.9196 26.7573 18.2076 26.736C18.4956 26.7147 18.7303 26.6987 18.9116 26.688C19.1036 26.6667 19.1996 26.656 19.1996 26.656L19.2316 26.736L19.1356 27.232C18.773 27.2427 18.5223 27.28 18.3836 27.344C18.2556 27.3973 18.1916 27.4987 18.1916 27.648C18.1916 27.7227 18.2236 27.8987 18.2876 28.176C18.3516 28.4427 18.437 28.768 18.5436 29.152C18.6503 29.5253 18.757 29.9147 18.8636 30.32C18.981 30.7147 19.093 31.088 19.1996 31.44C19.3063 31.792 19.3916 32.08 19.4556 32.304C19.5196 32.5173 19.5516 32.624 19.5516 32.624H19.6156C20.0103 31.6427 20.3463 30.8107 20.6236 30.128C20.9116 29.4453 21.1303 28.9067 21.2796 28.512C21.429 28.1173 21.5036 27.856 21.5036 27.728C21.5036 27.5787 21.4503 27.4773 21.3436 27.424C21.2476 27.3707 21.0716 27.344 20.8156 27.344H20.2076L20.1436 27.248L20.2236 26.752C20.2236 26.752 20.309 26.752 20.4796 26.752C20.661 26.752 20.885 26.7573 21.1516 26.768C21.4183 26.768 21.6796 26.768 21.9356 26.768C22.1276 26.768 22.325 26.768 22.5276 26.768C22.7303 26.7573 22.901 26.752 23.0396 26.752C23.1783 26.752 23.2476 26.752 23.2476 26.752L23.1356 27.344C22.9116 27.376 22.7356 27.4667 22.6076 27.616C22.4796 27.7653 22.3143 28.0747 22.1116 28.544L19.8236 34L18.9276 34.272ZM26.5706 34.192C25.9626 34.192 25.424 34.0427 24.9546 33.744C24.4853 33.4453 24.1173 33.0293 23.8506 32.496C23.5946 31.952 23.4666 31.3333 23.4666 30.64C23.4666 29.872 23.6266 29.184 23.9466 28.576C24.2773 27.9573 24.7253 27.472 25.2906 27.12C25.856 26.7573 26.4853 26.576 27.1786 26.576C27.7866 26.576 28.3253 26.7253 28.7946 27.024C29.264 27.3227 29.6266 27.7387 29.8826 28.272C30.1493 28.8053 30.2826 29.424 30.2826 30.128C30.2826 30.8853 30.1173 31.5733 29.7866 32.192C29.4666 32.8107 29.024 33.3013 28.4586 33.664C27.904 34.016 27.2746 34.192 26.5706 34.192ZM27.0186 33.408C27.616 33.408 28.0906 33.168 28.4426 32.688C28.7946 32.1973 28.9706 31.536 28.9706 30.704C28.9706 30.064 28.8746 29.4987 28.6826 29.008C28.4906 28.5173 28.224 28.1333 27.8826 27.856C27.5413 27.5787 27.1466 27.44 26.6986 27.44C26.1013 27.44 25.6266 27.6853 25.2746 28.176C24.9226 28.6667 24.7466 29.3333 24.7466 30.176C24.7466 30.816 24.8426 31.3813 25.0346 31.872C25.2266 32.352 25.4933 32.7307 25.8346 33.008C26.176 33.2747 26.5706 33.408 27.0186 33.408ZM32.2994 28.448C32.2994 28.1707 32.2514 27.9573 32.1554 27.808C32.0594 27.6587 31.91 27.584 31.7074 27.584C31.622 27.584 31.5314 27.5947 31.4354 27.616C31.35 27.6373 31.3074 27.648 31.3074 27.648L31.3714 27.056C31.6167 27.0133 31.8727 26.9653 32.1394 26.912C32.406 26.8587 32.6514 26.8053 32.8754 26.752C33.11 26.6987 33.2967 26.656 33.4354 26.624C33.5847 26.592 33.6594 26.576 33.6594 26.576L33.7554 26.768C33.702 26.9067 33.6487 27.1467 33.5954 27.488C33.5527 27.8187 33.51 28.208 33.4674 28.656C33.4247 29.104 33.3927 29.5787 33.3714 30.08C33.35 30.5707 33.3394 31.0507 33.3394 31.52C33.3394 32.5653 33.766 33.088 34.6194 33.088C34.9927 33.088 35.3394 32.9867 35.6594 32.784C35.99 32.5707 36.2887 32.368 36.5554 32.176V28.464C36.5554 28.144 36.4967 27.92 36.3794 27.792C36.262 27.664 36.054 27.6 35.7554 27.6C35.7127 27.6 35.638 27.6053 35.5314 27.616C35.4247 27.616 35.3714 27.616 35.3714 27.616L35.4354 27.04C35.7234 26.9973 36.0114 26.9493 36.2994 26.896C36.5874 26.8427 36.8487 26.7947 37.0834 26.752C37.3287 26.6987 37.526 26.656 37.6754 26.624C37.8247 26.592 37.8994 26.576 37.8994 26.576L37.9954 26.768C37.9314 26.928 37.8727 27.2853 37.8194 27.84C37.766 28.3947 37.7234 29.0667 37.6914 29.856C37.6594 30.6453 37.6434 31.4667 37.6434 32.32C37.6434 32.5547 37.702 32.736 37.8194 32.864C37.9367 32.992 38.0967 33.056 38.2994 33.056C38.47 33.056 38.6247 33.024 38.7634 32.96C38.9127 32.8853 39.03 32.816 39.1154 32.752C39.2114 32.688 39.2594 32.656 39.2594 32.656L39.4834 32.912C39.4834 32.912 39.4354 32.976 39.3394 33.104C39.254 33.232 39.1367 33.3813 38.9874 33.552C38.8487 33.7227 38.6994 33.872 38.5394 34C38.3794 34.128 38.23 34.192 38.0914 34.192C37.2274 34.192 36.7527 33.76 36.6674 32.896L36.5874 32.864C36.0754 33.2587 35.6114 33.5787 35.1954 33.824C34.79 34.0693 34.5127 34.192 34.3634 34.192C33.6807 34.192 33.1527 34.032 32.7794 33.712C32.4167 33.392 32.2354 32.9333 32.2354 32.336L32.2994 28.448ZM42.2516 34.192C41.8676 34.192 41.5316 34.16 41.2436 34.096C40.9556 34.0427 40.7316 33.9893 40.5716 33.936C40.4223 33.8827 40.3476 33.856 40.3476 33.856L40.2996 33.744C40.321 33.6267 40.3423 33.4347 40.3636 33.168C40.3956 32.8907 40.4223 32.6027 40.4436 32.304C40.4756 32.0053 40.4916 31.7707 40.4916 31.6L41.0516 31.52C41.0516 32.224 41.169 32.72 41.4036 33.008C41.6383 33.296 42.0383 33.44 42.6036 33.44C43.009 33.44 43.3503 33.3493 43.6276 33.168C43.905 32.9867 44.0436 32.7627 44.0436 32.496C44.0436 32.3147 43.9903 32.1493 43.8836 32C43.777 31.8507 43.5903 31.6853 43.3236 31.504C43.057 31.3227 42.6783 31.104 42.1876 30.848C41.5796 30.5387 41.137 30.224 40.8596 29.904C40.5823 29.584 40.4436 29.232 40.4436 28.848C40.4436 28.4107 40.5716 28.0213 40.8276 27.68C41.0836 27.3387 41.4356 27.072 41.8836 26.88C42.3316 26.6773 42.833 26.576 43.3876 26.576C43.825 26.576 44.1983 26.6187 44.5076 26.704C44.8276 26.7893 44.9876 26.832 44.9876 26.832L45.0196 26.912C45.0196 26.912 44.9983 27.0027 44.9556 27.184C44.9236 27.3653 44.881 27.6053 44.8276 27.904C44.785 28.192 44.7476 28.512 44.7156 28.864L44.1236 28.912C44.1236 28.912 44.129 28.8533 44.1396 28.736C44.1503 28.6187 44.1556 28.5227 44.1556 28.448C44.1556 28.064 44.049 27.7867 43.8356 27.616C43.633 27.4347 43.3023 27.344 42.8436 27.344C42.481 27.344 42.1716 27.4293 41.9156 27.6C41.6703 27.7707 41.5476 27.9787 41.5476 28.224C41.5476 28.48 41.6543 28.72 41.8676 28.944C42.0916 29.168 42.449 29.408 42.9396 29.664C43.5156 29.9627 43.9636 30.2347 44.2836 30.48C44.6143 30.7147 44.8436 30.944 44.9716 31.168C45.1103 31.392 45.1796 31.6373 45.1796 31.904C45.1796 32.3093 45.041 32.688 44.7636 33.04C44.497 33.392 44.1396 33.6747 43.6916 33.888C43.2543 34.0907 42.7743 34.192 42.2516 34.192ZM55.077 34.192C54.6503 34.192 54.3143 34.0853 54.069 33.872C53.8343 33.648 53.6957 33.3227 53.653 32.896L53.589 32.88C53.333 33.136 53.0877 33.36 52.853 33.552C52.629 33.7333 52.4263 33.8773 52.245 33.984C52.0743 34.08 51.9357 34.128 51.829 34.128C51.4343 34.128 51.0823 34.0427 50.773 33.872C50.4637 33.7013 50.2183 33.4667 50.037 33.168C49.8663 32.8693 49.781 32.528 49.781 32.144C49.781 31.8347 49.8557 31.5627 50.005 31.328C50.165 31.0933 50.373 30.9387 50.629 30.864L53.669 30.032L53.685 29.328C53.685 28.7947 53.5623 28.3787 53.317 28.08C53.0717 27.7813 52.725 27.632 52.277 27.632C51.9783 27.632 51.6637 27.7013 51.333 27.84C51.0023 27.9787 50.677 28.176 50.357 28.432L50.277 28.384L50.085 27.696C50.3623 27.536 50.6717 27.3707 51.013 27.2C51.3543 27.0187 51.6797 26.8693 51.989 26.752C52.2983 26.6347 52.533 26.576 52.693 26.576C53.1623 26.576 53.5623 26.6613 53.893 26.832C54.2237 26.992 54.4743 27.2267 54.645 27.536C54.8263 27.8347 54.917 28.2027 54.917 28.64C54.917 28.7787 54.901 29.0027 54.869 29.312C54.8477 29.6213 54.8157 29.968 54.773 30.352C54.7303 30.7253 54.693 31.088 54.661 31.44C54.6397 31.792 54.629 32.0853 54.629 32.32C54.629 32.5547 54.6877 32.736 54.805 32.864C54.9223 32.992 55.0823 33.056 55.285 33.056C55.4663 33.056 55.6477 33.0133 55.829 32.928C56.0103 32.832 56.149 32.7413 56.245 32.656L56.469 32.912C56.3837 33.0507 56.2663 33.2107 56.117 33.392C55.9783 33.5627 55.8183 33.7227 55.637 33.872C55.4663 34.0213 55.2797 34.128 55.077 34.192ZM52.101 33.04C52.3037 33.04 52.5383 32.9707 52.805 32.832C53.0823 32.6827 53.333 32.496 53.557 32.272L53.637 30.64L51.461 31.296C51.1517 31.392 50.997 31.616 50.997 31.968C50.997 32.2667 51.0983 32.5227 51.301 32.736C51.5143 32.9387 51.781 33.04 52.101 33.04ZM59.1933 34.272C59.1933 34.272 59.1559 34.1547 59.0813 33.92C59.0066 33.6853 58.9106 33.376 58.7933 32.992C58.6759 32.608 58.5426 32.1867 58.3932 31.728C58.2439 31.2693 58.0946 30.8107 57.9453 30.352C57.8066 29.8827 57.6733 29.456 57.5453 29.072C57.4173 28.6773 57.3159 28.368 57.2413 28.144C57.0599 27.632 56.6973 27.3653 56.1532 27.344L56.1212 27.28L56.2172 26.752C56.2172 26.752 56.3026 26.752 56.4733 26.752C56.6439 26.752 56.8359 26.7573 57.0493 26.768C57.2626 26.768 57.4279 26.768 57.5453 26.768C57.8759 26.768 58.1853 26.7573 58.4733 26.736C58.7613 26.7147 58.9959 26.6987 59.1773 26.688C59.3693 26.6667 59.4653 26.656 59.4653 26.656L59.4973 26.736L59.4013 27.232C59.0386 27.2427 58.7879 27.28 58.6493 27.344C58.5213 27.3973 58.4573 27.4987 58.4573 27.648C58.4573 27.7227 58.4893 27.8987 58.5533 28.176C58.6173 28.4427 58.7026 28.768 58.8093 29.152C58.9159 29.5253 59.0226 29.9147 59.1293 30.32C59.2466 30.7147 59.3586 31.088 59.4653 31.44C59.5719 31.792 59.6573 32.08 59.7213 32.304C59.7853 32.5173 59.8173 32.624 59.8173 32.624H59.8813C60.2759 31.6427 60.6119 30.8107 60.8893 30.128C61.1773 29.4453 61.3959 28.9067 61.5453 28.512C61.6946 28.1173 61.7693 27.856 61.7693 27.728C61.7693 27.5787 61.7159 27.4773 61.6093 27.424C61.5133 27.3707 61.3373 27.344 61.0813 27.344H60.4733L60.4093 27.248L60.4893 26.752C60.4893 26.752 60.5746 26.752 60.7453 26.752C60.9266 26.752 61.1506 26.7573 61.4173 26.768C61.6839 26.768 61.9453 26.768 62.2013 26.768C62.3933 26.768 62.5906 26.768 62.7933 26.768C62.9959 26.7573 63.1666 26.752 63.3053 26.752C63.4439 26.752 63.5133 26.752 63.5133 26.752L63.4013 27.344C63.1773 27.376 63.0013 27.4667 62.8733 27.616C62.7453 27.7653 62.5799 28.0747 62.3773 28.544L60.0893 34L59.1933 34.272ZM67.0923 34.192C66.4203 34.192 65.8336 34.0427 65.3323 33.744C64.8309 33.4453 64.4363 33.0347 64.1483 32.512C63.8709 31.9787 63.7323 31.36 63.7323 30.656C63.7323 30.112 63.8229 29.5947 64.0043 29.104C64.1963 28.6133 64.4576 28.1813 64.7883 27.808C65.1189 27.424 65.4923 27.1253 65.9083 26.912C66.3349 26.688 66.7883 26.576 67.2682 26.576C68.8576 26.576 69.6523 27.3493 69.6523 28.896C69.6523 29.0347 69.6416 29.1787 69.6203 29.328C69.5989 29.4773 69.5776 29.5947 69.5563 29.68L69.3483 29.872H64.9323C64.9216 30.8213 65.0923 31.5733 65.4443 32.128C65.8069 32.672 66.3136 32.992 66.9643 33.088C67.6149 33.1733 68.3829 33.0133 69.2683 32.608L69.3643 32.64L69.5403 33.104C69.3269 33.2533 69.0709 33.4133 68.7723 33.584C68.4843 33.7547 68.1909 33.8987 67.8923 34.016C67.5936 34.1333 67.3269 34.192 67.0923 34.192ZM64.9963 29.28L67.8923 29.136C68.0523 29.1147 68.1589 29.0773 68.2123 29.024C68.2656 28.9707 68.2923 28.864 68.2923 28.704C68.2923 28.2773 68.1749 27.952 67.9403 27.728C67.7163 27.504 67.3909 27.392 66.9643 27.392C66.4736 27.392 66.0469 27.5627 65.6843 27.904C65.3216 28.2347 65.0923 28.6933 64.9963 29.28ZM70.9041 33.632L75.2561 27.376L73.2561 27.472C72.9148 27.4933 72.6428 27.552 72.4401 27.648C72.2375 27.7333 72.0881 27.8773 71.9921 28.08C71.9068 28.272 71.8428 28.5493 71.8001 28.912L71.1761 29.008C71.1761 29.008 71.1815 28.9387 71.1921 28.8C71.2135 28.6507 71.2348 28.464 71.2561 28.24C71.2775 28.0053 71.2988 27.7547 71.3201 27.488C71.3415 27.2107 71.3521 26.944 71.3521 26.688L71.4481 26.608L73.4961 26.736L76.8561 26.816L76.9841 27.152C76.2268 28.1227 75.5281 29.0453 74.8881 29.92C74.2588 30.7947 73.7255 31.5413 73.2881 32.16C72.8615 32.7787 72.5681 33.2053 72.4081 33.44L74.7761 33.296C75.2028 33.264 75.5335 33.0987 75.7681 32.8C76.0028 32.4907 76.1735 32.0053 76.2801 31.344L76.9201 31.264C76.9201 31.264 76.9041 31.344 76.8721 31.504C76.8508 31.664 76.8188 31.872 76.7761 32.128C76.7441 32.3733 76.7121 32.6507 76.6801 32.96C76.6588 33.2587 76.6481 33.552 76.6481 33.84L76.3921 34.096L71.8961 33.952L71.0641 34.032L70.9041 33.632ZM88.0594 34.192C87.2274 34.192 86.7527 33.8133 86.6354 33.056L86.5234 33.008C85.9687 33.3813 85.526 33.664 85.1954 33.856C84.8647 34.048 84.6407 34.144 84.5234 34.144C83.9154 34.144 83.3767 34.0053 82.9074 33.728C82.4487 33.44 82.086 33.0453 81.8194 32.544C81.5634 32.032 81.4354 31.44 81.4354 30.768C81.4354 30 81.6114 29.3013 81.9634 28.672C82.326 28.032 82.8114 27.5253 83.4194 27.152C84.0274 26.768 84.694 26.576 85.4194 26.576C85.5687 26.576 85.734 26.5813 85.9154 26.592C86.0967 26.6027 86.2994 26.6187 86.5234 26.64V23.984C86.5234 23.6853 86.4754 23.4667 86.3794 23.328C86.2834 23.1893 86.134 23.12 85.9314 23.12C85.846 23.12 85.7554 23.1307 85.6594 23.152C85.574 23.1733 85.5314 23.184 85.5314 23.184L85.5954 22.592C85.8727 22.56 86.15 22.5173 86.4274 22.464C86.7047 22.4107 86.9607 22.3573 87.1954 22.304C87.43 22.2507 87.6167 22.208 87.7554 22.176C87.894 22.144 87.9634 22.128 87.9634 22.128L88.0594 22.336C88.0167 22.4107 87.974 22.6507 87.9314 23.056C87.8887 23.4613 87.846 23.9947 87.8034 24.656C87.7714 25.3173 87.7394 26.064 87.7074 26.896C87.6754 27.7173 87.6487 28.592 87.6274 29.52C87.6167 30.448 87.6114 31.3813 87.6114 32.32C87.6114 32.5547 87.67 32.736 87.7874 32.864C87.9047 32.992 88.0647 33.056 88.2674 33.056C88.438 33.056 88.5927 33.024 88.7314 32.96C88.8807 32.8853 88.998 32.816 89.0834 32.752C89.1794 32.688 89.2274 32.656 89.2274 32.656L89.4514 32.912C89.4514 32.912 89.414 32.9653 89.3394 33.072C89.2647 33.1787 89.1634 33.312 89.0354 33.472C88.9074 33.6213 88.758 33.7653 88.5874 33.904C88.4274 34.0427 88.2514 34.1387 88.0594 34.192ZM84.7794 33.104C84.9714 33.104 85.1687 33.0613 85.3714 32.976C85.574 32.8907 85.7607 32.7947 85.9314 32.688C86.1127 32.5707 86.2567 32.4693 86.3634 32.384C86.47 32.2987 86.5234 32.256 86.5234 32.256V27.872C86.5234 27.872 86.3847 27.8133 86.1074 27.696C85.83 27.568 85.4514 27.504 84.9714 27.504C84.2567 27.504 83.6914 27.7493 83.2754 28.24C82.87 28.72 82.6674 29.3813 82.6674 30.224C82.6674 30.7573 82.758 31.2427 82.9394 31.68C83.1314 32.1173 83.3874 32.464 83.7074 32.72C84.0274 32.976 84.3847 33.104 84.7794 33.104ZM93.3891 34.192C92.7171 34.192 92.1305 34.0427 91.6291 33.744C91.1278 33.4453 90.7331 33.0347 90.4451 32.512C90.1678 31.9787 90.0291 31.36 90.0291 30.656C90.0291 30.112 90.1198 29.5947 90.3011 29.104C90.4931 28.6133 90.7545 28.1813 91.0851 27.808C91.4158 27.424 91.7891 27.1253 92.2051 26.912C92.6318 26.688 93.0851 26.576 93.5651 26.576C95.1545 26.576 95.9491 27.3493 95.9491 28.896C95.9491 29.0347 95.9385 29.1787 95.9171 29.328C95.8958 29.4773 95.8745 29.5947 95.8531 29.68L95.6451 29.872H91.2291C91.2185 30.8213 91.3891 31.5733 91.7411 32.128C92.1038 32.672 92.6105 32.992 93.2611 33.088C93.9118 33.1733 94.6798 33.0133 95.5651 32.608L95.6611 32.64L95.8371 33.104C95.6238 33.2533 95.3678 33.4133 95.0691 33.584C94.7811 33.7547 94.4878 33.8987 94.1891 34.016C93.8905 34.1333 93.6238 34.192 93.3891 34.192ZM91.2931 29.28L94.1891 29.136C94.3491 29.1147 94.4558 29.0773 94.5091 29.024C94.5625 28.9707 94.5891 28.864 94.5891 28.704C94.5891 28.2773 94.4718 27.952 94.2371 27.728C94.0131 27.504 93.6878 27.392 93.2611 27.392C92.7705 27.392 92.3438 27.5627 91.9811 27.904C91.6185 28.2347 91.3891 28.6933 91.2931 29.28ZM99.361 34.192C98.977 34.192 98.641 34.16 98.353 34.096C98.065 34.0427 97.841 33.9893 97.681 33.936C97.5317 33.8827 97.457 33.856 97.457 33.856L97.409 33.744C97.4303 33.6267 97.4517 33.4347 97.473 33.168C97.505 32.8907 97.5317 32.6027 97.553 32.304C97.585 32.0053 97.601 31.7707 97.601 31.6L98.161 31.52C98.161 32.224 98.2783 32.72 98.513 33.008C98.7477 33.296 99.1477 33.44 99.713 33.44C100.118 33.44 100.46 33.3493 100.737 33.168C101.014 32.9867 101.153 32.7627 101.153 32.496C101.153 32.3147 101.1 32.1493 100.993 32C100.886 31.8507 100.7 31.6853 100.433 31.504C100.166 31.3227 99.7877 31.104 99.297 30.848C98.689 30.5387 98.2463 30.224 97.969 29.904C97.6917 29.584 97.553 29.232 97.553 28.848C97.553 28.4107 97.681 28.0213 97.937 27.68C98.193 27.3387 98.545 27.072 98.993 26.88C99.441 26.6773 99.9423 26.576 100.497 26.576C100.934 26.576 101.308 26.6187 101.617 26.704C101.937 26.7893 102.097 26.832 102.097 26.832L102.129 26.912C102.129 26.912 102.108 27.0027 102.065 27.184C102.033 27.3653 101.99 27.6053 101.937 27.904C101.894 28.192 101.857 28.512 101.825 28.864L101.233 28.912C101.233 28.912 101.238 28.8533 101.249 28.736C101.26 28.6187 101.265 28.5227 101.265 28.448C101.265 28.064 101.158 27.7867 100.945 27.616C100.742 27.4347 100.412 27.344 99.953 27.344C99.5903 27.344 99.281 27.4293 99.025 27.6C98.7797 27.7707 98.657 27.9787 98.657 28.224C98.657 28.48 98.7637 28.72 98.977 28.944C99.201 29.168 99.5583 29.408 100.049 29.664C100.625 29.9627 101.073 30.2347 101.393 30.48C101.724 30.7147 101.953 30.944 102.081 31.168C102.22 31.392 102.289 31.6373 102.289 31.904C102.289 32.3093 102.15 32.688 101.873 33.04C101.606 33.392 101.249 33.6747 100.801 33.888C100.364 34.0907 99.8837 34.192 99.361 34.192ZM113.434 34.192C112.602 34.192 112.128 33.8133 112.01 33.056L111.898 33.008C111.344 33.3813 110.901 33.664 110.57 33.856C110.24 34.048 110.016 34.144 109.898 34.144C109.29 34.144 108.752 34.0053 108.282 33.728C107.824 33.44 107.461 33.0453 107.194 32.544C106.938 32.032 106.81 31.44 106.81 30.768C106.81 30 106.986 29.3013 107.338 28.672C107.701 28.032 108.186 27.5253 108.794 27.152C109.402 26.768 110.069 26.576 110.794 26.576C110.944 26.576 111.109 26.5813 111.29 26.592C111.472 26.6027 111.674 26.6187 111.898 26.64V23.984C111.898 23.6853 111.85 23.4667 111.754 23.328C111.658 23.1893 111.509 23.12 111.306 23.12C111.221 23.12 111.13 23.1307 111.034 23.152C110.949 23.1733 110.906 23.184 110.906 23.184L110.97 22.592C111.248 22.56 111.525 22.5173 111.802 22.464C112.08 22.4107 112.336 22.3573 112.57 22.304C112.805 22.2507 112.992 22.208 113.13 22.176C113.269 22.144 113.338 22.128 113.338 22.128L113.434 22.336C113.392 22.4107 113.349 22.6507 113.306 23.056C113.264 23.4613 113.221 23.9947 113.178 24.656C113.146 25.3173 113.114 26.064 113.082 26.896C113.05 27.7173 113.024 28.592 113.002 29.52C112.992 30.448 112.986 31.3813 112.986 32.32C112.986 32.5547 113.045 32.736 113.162 32.864C113.28 32.992 113.44 33.056 113.642 33.056C113.813 33.056 113.968 33.024 114.106 32.96C114.256 32.8853 114.373 32.816 114.458 32.752C114.554 32.688 114.602 32.656 114.602 32.656L114.826 32.912C114.826 32.912 114.789 32.9653 114.714 33.072C114.64 33.1787 114.538 33.312 114.41 33.472C114.282 33.6213 114.133 33.7653 113.962 33.904C113.802 34.0427 113.626 34.1387 113.434 34.192ZM110.154 33.104C110.346 33.104 110.544 33.0613 110.746 32.976C110.949 32.8907 111.136 32.7947 111.306 32.688C111.488 32.5707 111.632 32.4693 111.738 32.384C111.845 32.2987 111.898 32.256 111.898 32.256V27.872C111.898 27.872 111.76 27.8133 111.482 27.696C111.205 27.568 110.826 27.504 110.346 27.504C109.632 27.504 109.066 27.7493 108.65 28.24C108.245 28.72 108.042 29.3813 108.042 30.224C108.042 30.7573 108.133 31.2427 108.314 31.68C108.506 32.1173 108.762 32.464 109.082 32.72C109.402 32.976 109.76 33.104 110.154 33.104ZM118.764 34.192C118.092 34.192 117.505 34.0427 117.004 33.744C116.503 33.4453 116.108 33.0347 115.82 32.512C115.543 31.9787 115.404 31.36 115.404 30.656C115.404 30.112 115.495 29.5947 115.676 29.104C115.868 28.6133 116.129 28.1813 116.46 27.808C116.791 27.424 117.164 27.1253 117.58 26.912C118.007 26.688 118.46 26.576 118.94 26.576C120.529 26.576 121.324 27.3493 121.324 28.896C121.324 29.0347 121.313 29.1787 121.292 29.328C121.271 29.4773 121.249 29.5947 121.228 29.68L121.02 29.872H116.604C116.593 30.8213 116.764 31.5733 117.116 32.128C117.479 32.672 117.985 32.992 118.636 33.088C119.287 33.1733 120.055 33.0133 120.94 32.608L121.036 32.64L121.212 33.104C120.999 33.2533 120.743 33.4133 120.444 33.584C120.156 33.7547 119.863 33.8987 119.564 34.016C119.265 34.1333 118.999 34.192 118.764 34.192ZM116.668 29.28L119.564 29.136C119.724 29.1147 119.831 29.0773 119.884 29.024C119.937 28.9707 119.964 28.864 119.964 28.704C119.964 28.2773 119.847 27.952 119.612 27.728C119.388 27.504 119.063 27.392 118.636 27.392C118.145 27.392 117.719 27.5627 117.356 27.904C116.993 28.2347 116.764 28.6933 116.668 29.28ZM127.2 33.536C127.52 33.4507 127.749 33.328 127.888 33.168C128.027 32.9973 128.096 32.7733 128.096 32.496L128.16 29.328C128.16 28.7947 128.043 28.384 127.808 28.096C127.584 27.808 127.259 27.664 126.832 27.664C126.576 27.664 126.315 27.7173 126.048 27.824C125.781 27.9307 125.541 28.048 125.328 28.176C125.125 28.304 124.971 28.4107 124.864 28.496C124.853 28.7733 124.837 29.104 124.816 29.488C124.805 29.8613 124.789 30.2453 124.768 30.64C124.757 31.0347 124.747 31.392 124.736 31.712C124.725 32.032 124.72 32.272 124.72 32.432C124.72 32.7627 124.763 32.9973 124.848 33.136C124.944 33.264 125.093 33.328 125.296 33.328C125.392 33.328 125.509 33.3227 125.648 33.312C125.787 33.3013 125.856 33.296 125.856 33.296L125.888 33.36L125.744 34.048C125.744 34.048 125.664 34.0427 125.504 34.032C125.344 34.0213 125.152 34.0107 124.928 34C124.704 34 124.491 34 124.288 34C124.064 34 123.829 34 123.584 34C123.339 34.0107 123.131 34.016 122.96 34.016C122.789 34.0267 122.704 34.032 122.704 34.032L122.8 33.376C123.109 33.344 123.323 33.264 123.44 33.136C123.568 33.008 123.632 32.7947 123.632 32.496V28.592C123.632 28.2293 123.573 27.9787 123.456 27.84C123.339 27.6907 123.136 27.616 122.848 27.616H122.672L122.624 27.552L122.672 27.024C123.045 26.96 123.403 26.896 123.744 26.832C124.085 26.7573 124.363 26.6933 124.576 26.64C124.8 26.5867 124.912 26.56 124.912 26.56L125.008 26.688C125.008 26.688 124.981 26.7947 124.928 27.008C124.885 27.2213 124.853 27.4667 124.832 27.744L124.864 27.792C124.96 27.728 125.109 27.632 125.312 27.504C125.515 27.3653 125.733 27.2267 125.968 27.088C126.213 26.9387 126.448 26.816 126.672 26.72C126.896 26.624 127.077 26.576 127.216 26.576C127.728 26.576 128.16 26.688 128.512 26.912C128.875 27.1253 129.125 27.4347 129.264 27.84C129.328 27.7867 129.456 27.696 129.648 27.568C129.851 27.4293 130.08 27.2853 130.336 27.136C130.592 26.9867 130.837 26.8587 131.072 26.752C131.317 26.6347 131.52 26.576 131.68 26.576C132.352 26.576 132.885 26.7627 133.28 27.136C133.675 27.5093 133.872 28.0107 133.872 28.64C133.872 28.7787 133.861 29.008 133.84 29.328C133.819 29.648 133.792 30.0053 133.76 30.4C133.728 30.7947 133.701 31.1733 133.68 31.536C133.659 31.8987 133.648 32.1973 133.648 32.432C133.648 32.7627 133.691 32.9973 133.776 33.136C133.872 33.264 134.021 33.328 134.224 33.328C134.32 33.328 134.437 33.3227 134.576 33.312C134.715 33.3013 134.784 33.296 134.784 33.296L134.816 33.36L134.672 34.048C134.672 34.048 134.624 34.0427 134.528 34.032C134.432 34.032 134.309 34.0267 134.16 34.016C134.011 34.016 133.851 34.0107 133.68 34C133.52 34 133.365 34 133.216 34C133.045 34 132.869 34.0053 132.688 34.016C132.507 34.0267 132.336 34.0373 132.176 34.048C132.016 34.0587 131.883 34.0693 131.776 34.08C131.68 34.0907 131.632 34.096 131.632 34.096L131.712 33.44C132.021 33.3867 132.24 33.2907 132.368 33.152C132.496 33.0133 132.56 32.7947 132.56 32.496L132.624 29.328C132.624 28.7947 132.507 28.384 132.272 28.096C132.048 27.808 131.723 27.664 131.296 27.664C131.04 27.664 130.784 27.712 130.528 27.808C130.283 27.904 130.053 28.016 129.84 28.144C129.637 28.272 129.477 28.3787 129.36 28.464L129.184 32.432C129.184 32.7413 129.227 32.9707 129.312 33.12C129.397 33.2587 129.541 33.328 129.744 33.328C129.84 33.328 129.957 33.3227 130.096 33.312C130.235 33.3013 130.304 33.296 130.304 33.296L130.336 33.36L130.208 34.048C130.208 34.048 130.16 34.0427 130.064 34.032C129.979 34.032 129.861 34.0267 129.712 34.016C129.573 34.016 129.419 34.0107 129.248 34C129.088 34 128.933 34 128.784 34C128.613 34 128.432 34.0107 128.24 34.032C128.059 34.0533 127.883 34.0747 127.712 34.096C127.541 34.1173 127.403 34.1387 127.296 34.16C127.189 34.1813 127.136 34.192 127.136 34.192L127.2 33.536ZM141.265 34.192C140.838 34.192 140.502 34.0853 140.257 33.872C140.022 33.648 139.883 33.3227 139.841 32.896L139.777 32.88C139.521 33.136 139.275 33.36 139.041 33.552C138.817 33.7333 138.614 33.8773 138.433 33.984C138.262 34.08 138.123 34.128 138.017 34.128C137.622 34.128 137.27 34.0427 136.961 33.872C136.651 33.7013 136.406 33.4667 136.225 33.168C136.054 32.8693 135.969 32.528 135.969 32.144C135.969 31.8347 136.043 31.5627 136.193 31.328C136.353 31.0933 136.561 30.9387 136.817 30.864L139.857 30.032L139.873 29.328C139.873 28.7947 139.75 28.3787 139.505 28.08C139.259 27.7813 138.913 27.632 138.465 27.632C138.166 27.632 137.851 27.7013 137.521 27.84C137.19 27.9787 136.865 28.176 136.545 28.432L136.465 28.384L136.273 27.696C136.55 27.536 136.859 27.3707 137.201 27.2C137.542 27.0187 137.867 26.8693 138.177 26.752C138.486 26.6347 138.721 26.576 138.881 26.576C139.35 26.576 139.75 26.6613 140.081 26.832C140.411 26.992 140.662 27.2267 140.833 27.536C141.014 27.8347 141.105 28.2027 141.105 28.64C141.105 28.7787 141.089 29.0027 141.057 29.312C141.035 29.6213 141.003 29.968 140.961 30.352C140.918 30.7253 140.881 31.088 140.849 31.44C140.827 31.792 140.817 32.0853 140.817 32.32C140.817 32.5547 140.875 32.736 140.993 32.864C141.11 32.992 141.27 33.056 141.473 33.056C141.654 33.056 141.835 33.0133 142.017 32.928C142.198 32.832 142.337 32.7413 142.433 32.656L142.657 32.912C142.571 33.0507 142.454 33.2107 142.305 33.392C142.166 33.5627 142.006 33.7227 141.825 33.872C141.654 34.0213 141.467 34.128 141.265 34.192ZM138.289 33.04C138.491 33.04 138.726 32.9707 138.993 32.832C139.27 32.6827 139.521 32.496 139.745 32.272L139.825 30.64L137.649 31.296C137.339 31.392 137.185 31.616 137.185 31.968C137.185 32.2667 137.286 32.5227 137.489 32.736C137.702 32.9387 137.969 33.04 138.289 33.04ZM147.998 33.536C148.318 33.4507 148.547 33.328 148.686 33.168C148.824 32.9973 148.894 32.7733 148.894 32.496L148.958 29.328C148.958 28.7947 148.84 28.384 148.606 28.096C148.382 27.808 148.056 27.664 147.63 27.664C147.374 27.664 147.112 27.7173 146.846 27.824C146.579 27.9307 146.339 28.048 146.126 28.176C145.923 28.304 145.768 28.4107 145.662 28.496C145.651 28.7733 145.635 29.104 145.614 29.488C145.603 29.8613 145.587 30.2453 145.566 30.64C145.555 31.0347 145.544 31.392 145.534 31.712C145.523 32.032 145.518 32.272 145.518 32.432C145.518 32.7627 145.56 32.9973 145.646 33.136C145.742 33.264 145.891 33.328 146.094 33.328C146.19 33.328 146.307 33.3227 146.446 33.312C146.584 33.3013 146.654 33.296 146.654 33.296L146.686 33.36L146.542 34.048C146.542 34.048 146.462 34.0427 146.302 34.032C146.142 34.0213 145.95 34.0107 145.726 34C145.502 34 145.288 34 145.086 34C144.862 34 144.627 34.0053 144.382 34.016C144.136 34.0373 143.928 34.0533 143.758 34.064C143.587 34.0853 143.502 34.096 143.502 34.096L143.582 33.44C143.891 33.3867 144.11 33.2907 144.238 33.152C144.366 33.0133 144.43 32.7947 144.43 32.496V28.592C144.43 28.2293 144.371 27.9787 144.254 27.84C144.136 27.6907 143.934 27.616 143.646 27.616H143.47L143.422 27.552L143.47 27.024C143.843 26.96 144.2 26.896 144.542 26.832C144.883 26.7573 145.16 26.6933 145.374 26.64C145.598 26.5867 145.71 26.56 145.71 26.56L145.806 26.688C145.806 26.688 145.779 26.7947 145.726 27.008C145.683 27.2213 145.651 27.4667 145.63 27.744L145.662 27.792C145.758 27.728 145.907 27.632 146.11 27.504C146.323 27.3653 146.547 27.2267 146.782 27.088C147.027 26.9493 147.262 26.832 147.486 26.736C147.71 26.6293 147.886 26.576 148.014 26.576C148.686 26.576 149.219 26.7627 149.614 27.136C150.008 27.5093 150.206 28.0107 150.206 28.64C150.206 28.7787 150.195 29.008 150.174 29.328C150.152 29.648 150.126 30.0053 150.094 30.4C150.062 30.7947 150.035 31.1733 150.014 31.536C149.992 31.8987 149.982 32.1973 149.982 32.432C149.982 32.7413 150.024 32.9707 150.11 33.12C150.195 33.2587 150.339 33.328 150.542 33.328C150.638 33.328 150.755 33.3227 150.894 33.312C151.032 33.3013 151.102 33.296 151.102 33.296L151.134 33.36L151.006 34.048C151.006 34.048 150.958 34.0427 150.862 34.032C150.776 34.032 150.659 34.0267 150.51 34.016C150.371 34.016 150.216 34.0107 150.046 34C149.886 34 149.731 34 149.582 34C149.411 34 149.23 34.0107 149.038 34.032C148.856 34.0533 148.68 34.0747 148.51 34.096C148.339 34.1173 148.2 34.1387 148.094 34.16C147.987 34.1813 147.934 34.192 147.934 34.192L147.998 33.536ZM158.731 34.192C157.899 34.192 157.425 33.8133 157.307 33.056L157.195 33.008C156.641 33.3813 156.198 33.664 155.867 33.856C155.537 34.048 155.313 34.144 155.195 34.144C154.587 34.144 154.049 34.0053 153.579 33.728C153.121 33.44 152.758 33.0453 152.491 32.544C152.235 32.032 152.107 31.44 152.107 30.768C152.107 30 152.283 29.3013 152.635 28.672C152.998 28.032 153.483 27.5253 154.091 27.152C154.699 26.768 155.366 26.576 156.091 26.576C156.241 26.576 156.406 26.5813 156.587 26.592C156.769 26.6027 156.971 26.6187 157.195 26.64V23.984C157.195 23.6853 157.147 23.4667 157.051 23.328C156.955 23.1893 156.806 23.12 156.603 23.12C156.518 23.12 156.427 23.1307 156.331 23.152C156.246 23.1733 156.203 23.184 156.203 23.184L156.267 22.592C156.545 22.56 156.822 22.5173 157.099 22.464C157.377 22.4107 157.633 22.3573 157.867 22.304C158.102 22.2507 158.289 22.208 158.427 22.176C158.566 22.144 158.635 22.128 158.635 22.128L158.731 22.336C158.689 22.4107 158.646 22.6507 158.603 23.056C158.561 23.4613 158.518 23.9947 158.475 24.656C158.443 25.3173 158.411 26.064 158.379 26.896C158.347 27.7173 158.321 28.592 158.299 29.52C158.289 30.448 158.283 31.3813 158.283 32.32C158.283 32.5547 158.342 32.736 158.459 32.864C158.577 32.992 158.737 33.056 158.939 33.056C159.11 33.056 159.265 33.024 159.403 32.96C159.553 32.8853 159.67 32.816 159.755 32.752C159.851 32.688 159.899 32.656 159.899 32.656L160.123 32.912C160.123 32.912 160.086 32.9653 160.011 33.072C159.937 33.1787 159.835 33.312 159.707 33.472C159.579 33.6213 159.43 33.7653 159.259 33.904C159.099 34.0427 158.923 34.1387 158.731 34.192ZM155.451 33.104C155.643 33.104 155.841 33.0613 156.043 32.976C156.246 32.8907 156.433 32.7947 156.603 32.688C156.785 32.5707 156.929 32.4693 157.035 32.384C157.142 32.2987 157.195 32.256 157.195 32.256V27.872C157.195 27.872 157.057 27.8133 156.779 27.696C156.502 27.568 156.123 27.504 155.643 27.504C154.929 27.504 154.363 27.7493 153.947 28.24C153.542 28.72 153.339 29.3813 153.339 30.224C153.339 30.7573 153.43 31.2427 153.611 31.68C153.803 32.1173 154.059 32.464 154.379 32.72C154.699 32.976 155.057 33.104 155.451 33.104ZM164.061 34.192C163.389 34.192 162.802 34.0427 162.301 33.744C161.8 33.4453 161.405 33.0347 161.117 32.512C160.84 31.9787 160.701 31.36 160.701 30.656C160.701 30.112 160.792 29.5947 160.973 29.104C161.165 28.6133 161.426 28.1813 161.757 27.808C162.088 27.424 162.461 27.1253 162.877 26.912C163.304 26.688 163.757 26.576 164.237 26.576C165.826 26.576 166.621 27.3493 166.621 28.896C166.621 29.0347 166.61 29.1787 166.589 29.328C166.568 29.4773 166.546 29.5947 166.525 29.68L166.317 29.872H161.901C161.89 30.8213 162.061 31.5733 162.413 32.128C162.776 32.672 163.282 32.992 163.933 33.088C164.584 33.1733 165.352 33.0133 166.237 32.608L166.333 32.64L166.509 33.104C166.296 33.2533 166.04 33.4133 165.741 33.584C165.453 33.7547 165.16 33.8987 164.861 34.016C164.562 34.1333 164.296 34.192 164.061 34.192ZM161.965 29.28L164.861 29.136C165.021 29.1147 165.128 29.0773 165.181 29.024C165.234 28.9707 165.261 28.864 165.261 28.704C165.261 28.2773 165.144 27.952 164.909 27.728C164.685 27.504 164.36 27.392 163.933 27.392C163.442 27.392 163.016 27.5627 162.653 27.904C162.29 28.2347 162.061 28.6933 161.965 29.28ZM170.033 34.192C169.649 34.192 169.313 34.16 169.025 34.096C168.737 34.0427 168.513 33.9893 168.353 33.936C168.204 33.8827 168.129 33.856 168.129 33.856L168.081 33.744C168.102 33.6267 168.124 33.4347 168.145 33.168C168.177 32.8907 168.204 32.6027 168.225 32.304C168.257 32.0053 168.273 31.7707 168.273 31.6L168.833 31.52C168.833 32.224 168.95 32.72 169.185 33.008C169.42 33.296 169.82 33.44 170.385 33.44C170.79 33.44 171.132 33.3493 171.409 33.168C171.686 32.9867 171.825 32.7627 171.825 32.496C171.825 32.3147 171.772 32.1493 171.665 32C171.558 31.8507 171.372 31.6853 171.105 31.504C170.838 31.3227 170.46 31.104 169.969 30.848C169.361 30.5387 168.918 30.224 168.641 29.904C168.364 29.584 168.225 29.232 168.225 28.848C168.225 28.4107 168.353 28.0213 168.609 27.68C168.865 27.3387 169.217 27.072 169.665 26.88C170.113 26.6773 170.614 26.576 171.169 26.576C171.606 26.576 171.98 26.6187 172.289 26.704C172.609 26.7893 172.769 26.832 172.769 26.832L172.801 26.912C172.801 26.912 172.78 27.0027 172.737 27.184C172.705 27.3653 172.662 27.6053 172.609 27.904C172.566 28.192 172.529 28.512 172.497 28.864L171.905 28.912C171.905 28.912 171.91 28.8533 171.921 28.736C171.932 28.6187 171.937 28.5227 171.937 28.448C171.937 28.064 171.83 27.7867 171.617 27.616C171.414 27.4347 171.084 27.344 170.625 27.344C170.262 27.344 169.953 27.4293 169.697 27.6C169.452 27.7707 169.329 27.9787 169.329 28.224C169.329 28.48 169.436 28.72 169.649 28.944C169.873 29.168 170.23 29.408 170.721 29.664C171.297 29.9627 171.745 30.2347 172.065 30.48C172.396 30.7147 172.625 30.944 172.753 31.168C172.892 31.392 172.961 31.6373 172.961 31.904C172.961 32.3093 172.822 32.688 172.545 33.04C172.278 33.392 171.921 33.6747 171.473 33.888C171.036 34.0907 170.556 34.192 170.033 34.192ZM174.718 36.512L174.43 36.272V36.112C174.793 35.8667 175.091 35.568 175.326 35.216C175.571 34.864 175.694 34.5173 175.694 34.176C175.694 33.952 175.641 33.744 175.534 33.552C175.438 33.3493 175.321 33.184 175.182 33.056L175.214 32.832C175.321 32.7467 175.459 32.656 175.63 32.56C175.801 32.464 175.971 32.416 176.142 32.416C176.366 32.416 176.558 32.5227 176.718 32.736C176.878 32.9493 176.958 33.2587 176.958 33.664C176.958 34.0693 176.835 34.4533 176.59 34.816C176.355 35.1787 176.062 35.504 175.71 35.792C175.369 36.08 175.038 36.32 174.718 36.512ZM186.184 33.536C186.504 33.4507 186.734 33.328 186.872 33.168C187.011 32.9973 187.08 32.7733 187.08 32.496L187.144 29.328C187.144 28.7947 187.027 28.384 186.792 28.096C186.568 27.808 186.243 27.664 185.816 27.664C185.56 27.664 185.299 27.7173 185.032 27.824C184.766 27.9307 184.526 28.048 184.312 28.176C184.11 28.304 183.955 28.4107 183.848 28.496C183.838 28.7733 183.822 29.104 183.8 29.488C183.79 29.8613 183.774 30.2453 183.752 30.64C183.742 31.0347 183.731 31.392 183.72 31.712C183.71 32.032 183.704 32.272 183.704 32.432C183.704 32.7627 183.747 32.9973 183.832 33.136C183.928 33.264 184.078 33.328 184.28 33.328C184.376 33.328 184.494 33.3227 184.632 33.312C184.771 33.3013 184.84 33.296 184.84 33.296L184.872 33.36L184.728 34.048C184.728 34.048 184.648 34.0427 184.488 34.032C184.328 34.0213 184.136 34.0107 183.912 34C183.688 34 183.475 34 183.272 34C183.048 34 182.814 34 182.568 34C182.323 34.0107 182.115 34.016 181.944 34.016C181.774 34.0267 181.688 34.032 181.688 34.032L181.784 33.376C182.094 33.344 182.307 33.264 182.424 33.136C182.552 33.008 182.616 32.7947 182.616 32.496V28.592C182.616 28.2293 182.558 27.9787 182.44 27.84C182.323 27.6907 182.12 27.616 181.832 27.616H181.656L181.608 27.552L181.656 27.024C182.03 26.96 182.387 26.896 182.728 26.832C183.07 26.7573 183.347 26.6933 183.56 26.64C183.784 26.5867 183.896 26.56 183.896 26.56L183.992 26.688C183.992 26.688 183.966 26.7947 183.912 27.008C183.87 27.2213 183.838 27.4667 183.816 27.744L183.848 27.792C183.944 27.728 184.094 27.632 184.296 27.504C184.499 27.3653 184.718 27.2267 184.952 27.088C185.198 26.9387 185.432 26.816 185.656 26.72C185.88 26.624 186.062 26.576 186.2 26.576C186.712 26.576 187.144 26.688 187.496 26.912C187.859 27.1253 188.11 27.4347 188.248 27.84C188.312 27.7867 188.44 27.696 188.632 27.568C188.835 27.4293 189.064 27.2853 189.32 27.136C189.576 26.9867 189.822 26.8587 190.056 26.752C190.302 26.6347 190.504 26.576 190.664 26.576C191.336 26.576 191.87 26.7627 192.264 27.136C192.659 27.5093 192.856 28.0107 192.856 28.64C192.856 28.7787 192.846 29.008 192.824 29.328C192.803 29.648 192.776 30.0053 192.744 30.4C192.712 30.7947 192.686 31.1733 192.664 31.536C192.643 31.8987 192.632 32.1973 192.632 32.432C192.632 32.7627 192.675 32.9973 192.76 33.136C192.856 33.264 193.006 33.328 193.208 33.328C193.304 33.328 193.422 33.3227 193.56 33.312C193.699 33.3013 193.768 33.296 193.768 33.296L193.8 33.36L193.656 34.048C193.656 34.048 193.608 34.0427 193.512 34.032C193.416 34.032 193.294 34.0267 193.144 34.016C192.995 34.016 192.835 34.0107 192.664 34C192.504 34 192.35 34 192.2 34C192.03 34 191.854 34.0053 191.672 34.016C191.491 34.0267 191.32 34.0373 191.16 34.048C191 34.0587 190.867 34.0693 190.76 34.08C190.664 34.0907 190.616 34.096 190.616 34.096L190.696 33.44C191.006 33.3867 191.224 33.2907 191.352 33.152C191.48 33.0133 191.544 32.7947 191.544 32.496L191.608 29.328C191.608 28.7947 191.491 28.384 191.256 28.096C191.032 27.808 190.707 27.664 190.28 27.664C190.024 27.664 189.768 27.712 189.512 27.808C189.267 27.904 189.038 28.016 188.824 28.144C188.622 28.272 188.462 28.3787 188.344 28.464L188.168 32.432C188.168 32.7413 188.211 32.9707 188.296 33.12C188.382 33.2587 188.526 33.328 188.728 33.328C188.824 33.328 188.942 33.3227 189.08 33.312C189.219 33.3013 189.288 33.296 189.288 33.296L189.32 33.36L189.192 34.048C189.192 34.048 189.144 34.0427 189.048 34.032C188.963 34.032 188.846 34.0267 188.696 34.016C188.558 34.016 188.403 34.0107 188.232 34C188.072 34 187.918 34 187.768 34C187.598 34 187.416 34.0107 187.224 34.032C187.043 34.0533 186.867 34.0747 186.696 34.096C186.526 34.1173 186.387 34.1387 186.28 34.16C186.174 34.1813 186.12 34.192 186.12 34.192L186.184 33.536ZM198.233 34.192C197.561 34.192 196.974 34.0427 196.473 33.744C195.972 33.4453 195.577 33.0347 195.289 32.512C195.012 31.9787 194.873 31.36 194.873 30.656C194.873 30.112 194.964 29.5947 195.145 29.104C195.337 28.6133 195.598 28.1813 195.929 27.808C196.26 27.424 196.633 27.1253 197.049 26.912C197.476 26.688 197.929 26.576 198.409 26.576C199.998 26.576 200.793 27.3493 200.793 28.896C200.793 29.0347 200.782 29.1787 200.761 29.328C200.74 29.4773 200.718 29.5947 200.697 29.68L200.489 29.872H196.073C196.062 30.8213 196.233 31.5733 196.585 32.128C196.948 32.672 197.454 32.992 198.105 33.088C198.756 33.1733 199.524 33.0133 200.409 32.608L200.505 32.64L200.681 33.104C200.468 33.2533 200.212 33.4133 199.913 33.584C199.625 33.7547 199.332 33.8987 199.033 34.016C198.734 34.1333 198.468 34.192 198.233 34.192ZM196.137 29.28L199.033 29.136C199.193 29.1147 199.3 29.0773 199.353 29.024C199.406 28.9707 199.433 28.864 199.433 28.704C199.433 28.2773 199.316 27.952 199.081 27.728C198.857 27.504 198.532 27.392 198.105 27.392C197.614 27.392 197.188 27.5627 196.825 27.904C196.462 28.2347 196.233 28.6933 196.137 29.28ZM202.413 33.424C202.733 33.392 202.946 33.2907 203.053 33.12C203.159 32.9387 203.213 32.5973 203.213 32.096V28.576C203.213 28.224 203.165 27.9733 203.069 27.824C202.973 27.6747 202.818 27.6 202.605 27.6C202.519 27.6 202.439 27.6107 202.365 27.632C202.301 27.6427 202.269 27.648 202.269 27.648L202.189 27.536L202.237 27.04C202.567 26.976 202.898 26.9067 203.229 26.832C203.559 26.7573 203.837 26.6933 204.061 26.64C204.285 26.5867 204.397 26.56 204.397 26.56L204.509 26.656C204.509 26.656 204.493 26.7413 204.461 26.912C204.439 27.0827 204.418 27.296 204.397 27.552C204.375 27.7973 204.365 28.048 204.365 28.304L204.429 28.352C204.759 27.8507 205.138 27.44 205.565 27.12C205.991 26.8 206.365 26.64 206.685 26.64C206.866 26.64 206.994 26.6507 207.069 26.672C207.143 26.6933 207.181 26.704 207.181 26.704L207.229 26.768C207.229 26.768 207.218 26.8427 207.197 26.992C207.175 27.1307 207.149 27.3173 207.117 27.552C207.085 27.776 207.053 28.0213 207.021 28.288C206.999 28.5547 206.983 28.8107 206.973 29.056L206.349 29.104C206.349 28.6667 206.322 28.3787 206.269 28.24C206.215 28.0907 206.098 28.016 205.917 28.016C205.682 28.016 205.431 28.112 205.165 28.304C204.898 28.496 204.653 28.7627 204.429 29.104C204.429 29.104 204.423 29.2053 204.413 29.408C204.402 29.6 204.391 29.8453 204.381 30.144C204.37 30.4427 204.359 30.752 204.349 31.072C204.338 31.3813 204.327 31.6587 204.317 31.904C204.306 32.1387 204.301 32.2933 204.301 32.368C204.301 32.7307 204.354 32.976 204.461 33.104C204.567 33.232 204.77 33.296 205.069 33.296C205.186 33.296 205.33 33.2907 205.501 33.28C205.682 33.2693 205.773 33.264 205.773 33.264L205.789 33.328L205.645 34.032C205.645 34.032 205.591 34.0267 205.485 34.016C205.378 34.016 205.239 34.016 205.069 34.016C204.898 34.016 204.717 34.0107 204.525 34C204.343 34 204.173 34 204.013 34C203.703 34 203.421 34.0053 203.165 34.016C202.909 34.0267 202.706 34.0373 202.557 34.048C202.407 34.0587 202.333 34.064 202.333 34.064L202.413 33.424ZM211.358 34.192C210.686 34.192 210.099 34.048 209.598 33.76C209.096 33.4613 208.707 33.0507 208.43 32.528C208.152 31.9947 208.014 31.3707 208.014 30.656C208.014 29.888 208.174 29.2 208.493 28.592C208.824 27.9733 209.267 27.4827 209.822 27.12C210.387 26.7573 211.016 26.576 211.71 26.576C212.051 26.576 212.36 26.6027 212.638 26.656C212.926 26.6987 213.155 26.7467 213.326 26.8C213.496 26.8533 213.582 26.88 213.582 26.88L213.63 26.992C213.63 26.992 213.603 27.088 213.55 27.28C213.507 27.472 213.459 27.7387 213.406 28.08C213.352 28.4107 213.315 28.784 213.294 29.2L212.638 29.248V28.752C212.638 28.3573 212.515 28.0427 212.27 27.808C212.035 27.5627 211.72 27.44 211.326 27.44C210.675 27.44 210.174 27.6747 209.822 28.144C209.47 28.6027 209.294 29.2587 209.294 30.112C209.294 31.04 209.486 31.776 209.87 32.32C210.264 32.8533 210.798 33.12 211.47 33.12C211.768 33.12 212.056 33.0773 212.334 32.992C212.611 32.896 212.835 32.8053 213.006 32.72C213.187 32.6347 213.278 32.592 213.278 32.592L213.374 32.624L213.55 33.12C213.55 33.12 213.475 33.1733 213.326 33.28C213.176 33.3867 212.984 33.5147 212.75 33.664C212.515 33.8027 212.27 33.9253 212.014 34.032C211.768 34.1387 211.55 34.192 211.358 34.192ZM214.923 34.192L214.987 33.536C215.307 33.4507 215.536 33.328 215.675 33.168C215.813 32.9973 215.883 32.7733 215.883 32.496V28.432C215.883 28.1333 215.835 27.9147 215.739 27.776C215.643 27.6373 215.493 27.568 215.291 27.568C215.205 27.568 215.115 27.5787 215.019 27.6C214.933 27.6213 214.891 27.632 214.891 27.632L214.955 27.04C215.221 26.9973 215.488 26.9493 215.755 26.896C216.032 26.8427 216.283 26.7947 216.507 26.752C216.731 26.6987 216.912 26.656 217.051 26.624C217.189 26.592 217.259 26.576 217.259 26.576L217.339 26.768C217.296 26.8747 217.248 27.1147 217.195 27.488C217.152 27.8507 217.115 28.2987 217.083 28.832C217.051 29.3547 217.024 29.9307 217.003 30.56C216.981 31.1787 216.971 31.8027 216.971 32.432C216.971 32.7413 217.013 32.9707 217.099 33.12C217.184 33.2587 217.328 33.328 217.531 33.328C217.627 33.328 217.744 33.3227 217.883 33.312C218.021 33.3013 218.091 33.296 218.091 33.296L218.123 33.36L217.995 34.048C217.995 34.048 217.947 34.0427 217.851 34.032C217.765 34.032 217.648 34.0267 217.499 34.016C217.36 34.016 217.205 34.0107 217.035 34C216.875 34 216.72 34 216.571 34C216.347 34 216.107 34.016 215.851 34.048C215.595 34.08 215.376 34.112 215.195 34.144C215.013 34.176 214.923 34.192 214.923 34.192ZM216.331 24.688C216.064 24.688 215.867 24.6027 215.739 24.432C215.611 24.2613 215.547 24.0747 215.547 23.872C215.547 23.616 215.637 23.3973 215.819 23.216C216 23.024 216.224 22.928 216.491 22.928C216.747 22.928 216.939 23.0133 217.067 23.184C217.205 23.344 217.275 23.5307 217.275 23.744C217.275 24 217.184 24.224 217.003 24.416C216.832 24.5973 216.608 24.688 216.331 24.688ZM229.106 34.192C228.274 34.192 227.8 33.8133 227.682 33.056L227.57 33.008C227.016 33.3813 226.573 33.664 226.242 33.856C225.912 34.048 225.688 34.144 225.57 34.144C224.962 34.144 224.424 34.0053 223.954 33.728C223.496 33.44 223.133 33.0453 222.866 32.544C222.61 32.032 222.482 31.44 222.482 30.768C222.482 30 222.658 29.3013 223.01 28.672C223.373 28.032 223.858 27.5253 224.466 27.152C225.074 26.768 225.741 26.576 226.466 26.576C226.616 26.576 226.781 26.5813 226.962 26.592C227.144 26.6027 227.346 26.6187 227.57 26.64V23.984C227.57 23.6853 227.522 23.4667 227.426 23.328C227.33 23.1893 227.181 23.12 226.978 23.12C226.893 23.12 226.802 23.1307 226.706 23.152C226.621 23.1733 226.578 23.184 226.578 23.184L226.642 22.592C226.92 22.56 227.197 22.5173 227.474 22.464C227.752 22.4107 228.008 22.3573 228.242 22.304C228.477 22.2507 228.664 22.208 228.802 22.176C228.941 22.144 229.01 22.128 229.01 22.128L229.106 22.336C229.064 22.4107 229.021 22.6507 228.978 23.056C228.936 23.4613 228.893 23.9947 228.85 24.656C228.818 25.3173 228.786 26.064 228.754 26.896C228.722 27.7173 228.696 28.592 228.674 29.52C228.664 30.448 228.658 31.3813 228.658 32.32C228.658 32.5547 228.717 32.736 228.834 32.864C228.952 32.992 229.112 33.056 229.314 33.056C229.485 33.056 229.64 33.024 229.778 32.96C229.928 32.8853 230.045 32.816 230.13 32.752C230.226 32.688 230.274 32.656 230.274 32.656L230.498 32.912C230.498 32.912 230.461 32.9653 230.386 33.072C230.312 33.1787 230.21 33.312 230.082 33.472C229.954 33.6213 229.805 33.7653 229.634 33.904C229.474 34.0427 229.298 34.1387 229.106 34.192ZM225.826 33.104C226.018 33.104 226.216 33.0613 226.418 32.976C226.621 32.8907 226.808 32.7947 226.978 32.688C227.16 32.5707 227.304 32.4693 227.41 32.384C227.517 32.2987 227.57 32.256 227.57 32.256V27.872C227.57 27.872 227.432 27.8133 227.154 27.696C226.877 27.568 226.498 27.504 226.018 27.504C225.304 27.504 224.738 27.7493 224.322 28.24C223.917 28.72 223.714 29.3813 223.714 30.224C223.714 30.7573 223.805 31.2427 223.986 31.68C224.178 32.1173 224.434 32.464 224.754 32.72C225.074 32.976 225.432 33.104 225.826 33.104ZM234.436 34.192C233.764 34.192 233.177 34.0427 232.676 33.744C232.175 33.4453 231.78 33.0347 231.492 32.512C231.215 31.9787 231.076 31.36 231.076 30.656C231.076 30.112 231.167 29.5947 231.348 29.104C231.54 28.6133 231.801 28.1813 232.132 27.808C232.463 27.424 232.836 27.1253 233.252 26.912C233.679 26.688 234.132 26.576 234.612 26.576C236.201 26.576 236.996 27.3493 236.996 28.896C236.996 29.0347 236.985 29.1787 236.964 29.328C236.943 29.4773 236.921 29.5947 236.9 29.68L236.692 29.872H232.276C232.265 30.8213 232.436 31.5733 232.788 32.128C233.151 32.672 233.657 32.992 234.308 33.088C234.959 33.1733 235.727 33.0133 236.612 32.608L236.708 32.64L236.884 33.104C236.671 33.2533 236.415 33.4133 236.116 33.584C235.828 33.7547 235.535 33.8987 235.236 34.016C234.937 34.1333 234.671 34.192 234.436 34.192ZM232.34 29.28L235.236 29.136C235.396 29.1147 235.503 29.0773 235.556 29.024C235.609 28.9707 235.636 28.864 235.636 28.704C235.636 28.2773 235.519 27.952 235.284 27.728C235.06 27.504 234.735 27.392 234.308 27.392C233.817 27.392 233.391 27.5627 233.028 27.904C232.665 28.2347 232.436 28.6933 232.34 29.28ZM246.076 33.536C246.396 33.4507 246.625 33.328 246.764 33.168C246.902 32.9973 246.972 32.7733 246.972 32.496L247.036 29.328C247.036 28.7947 246.918 28.384 246.684 28.096C246.46 27.808 246.134 27.664 245.708 27.664C245.452 27.664 245.19 27.7173 244.924 27.824C244.657 27.9307 244.417 28.048 244.204 28.176C244.001 28.304 243.846 28.4107 243.74 28.496C243.729 28.7733 243.713 29.104 243.692 29.488C243.681 29.8613 243.665 30.2453 243.644 30.64C243.633 31.0347 243.622 31.392 243.612 31.712C243.601 32.032 243.596 32.272 243.596 32.432C243.596 32.7627 243.638 32.9973 243.724 33.136C243.82 33.264 243.969 33.328 244.172 33.328C244.268 33.328 244.385 33.3227 244.524 33.312C244.662 33.3013 244.732 33.296 244.732 33.296L244.764 33.36L244.62 34.048C244.62 34.048 244.54 34.0427 244.38 34.032C244.22 34.0213 244.028 34.0107 243.804 34C243.58 34 243.366 34 243.164 34C242.94 34 242.705 34.0053 242.46 34.016C242.214 34.0373 242.006 34.0533 241.836 34.064C241.665 34.0853 241.58 34.096 241.58 34.096L241.66 33.44C241.969 33.3867 242.188 33.2907 242.316 33.152C242.444 33.0133 242.508 32.7947 242.508 32.496V28.592C242.508 28.2293 242.449 27.9787 242.332 27.84C242.214 27.6907 242.012 27.616 241.724 27.616H241.548L241.5 27.552L241.548 27.024C241.921 26.96 242.278 26.896 242.62 26.832C242.961 26.7573 243.238 26.6933 243.452 26.64C243.676 26.5867 243.788 26.56 243.788 26.56L243.884 26.688C243.884 26.688 243.857 26.7947 243.804 27.008C243.761 27.2213 243.729 27.4667 243.708 27.744L243.74 27.792C243.836 27.728 243.985 27.632 244.188 27.504C244.401 27.3653 244.625 27.2267 244.86 27.088C245.105 26.9493 245.34 26.832 245.564 26.736C245.788 26.6293 245.964 26.576 246.092 26.576C246.764 26.576 247.297 26.7627 247.692 27.136C248.086 27.5093 248.284 28.0107 248.284 28.64C248.284 28.7787 248.273 29.008 248.252 29.328C248.23 29.648 248.204 30.0053 248.172 30.4C248.14 30.7947 248.113 31.1733 248.092 31.536C248.07 31.8987 248.06 32.1973 248.06 32.432C248.06 32.7413 248.102 32.9707 248.188 33.12C248.273 33.2587 248.417 33.328 248.62 33.328C248.716 33.328 248.833 33.3227 248.972 33.312C249.11 33.3013 249.18 33.296 249.18 33.296L249.212 33.36L249.084 34.048C249.084 34.048 249.036 34.0427 248.94 34.032C248.854 34.032 248.737 34.0267 248.588 34.016C248.449 34.016 248.294 34.0107 248.124 34C247.964 34 247.809 34 247.66 34C247.489 34 247.308 34.0107 247.116 34.032C246.934 34.0533 246.758 34.0747 246.588 34.096C246.417 34.1173 246.278 34.1387 246.172 34.16C246.065 34.1813 246.012 34.192 246.012 34.192L246.076 33.536ZM253.545 34.192C252.873 34.192 252.287 34.0427 251.785 33.744C251.284 33.4453 250.889 33.0347 250.601 32.512C250.324 31.9787 250.185 31.36 250.185 30.656C250.185 30.112 250.276 29.5947 250.457 29.104C250.649 28.6133 250.911 28.1813 251.241 27.808C251.572 27.424 251.945 27.1253 252.361 26.912C252.788 26.688 253.241 26.576 253.721 26.576C255.311 26.576 256.105 27.3493 256.105 28.896C256.105 29.0347 256.095 29.1787 256.073 29.328C256.052 29.4773 256.031 29.5947 256.009 29.68L255.801 29.872H251.385C251.375 30.8213 251.545 31.5733 251.897 32.128C252.26 32.672 252.767 32.992 253.417 33.088C254.068 33.1733 254.836 33.0133 255.721 32.608L255.817 32.64L255.993 33.104C255.78 33.2533 255.524 33.4133 255.225 33.584C254.937 33.7547 254.644 33.8987 254.345 34.016C254.047 34.1333 253.78 34.192 253.545 34.192ZM251.449 29.28L254.345 29.136C254.505 29.1147 254.612 29.0773 254.665 29.024C254.719 28.9707 254.745 28.864 254.745 28.704C254.745 28.2773 254.628 27.952 254.393 27.728C254.169 27.504 253.844 27.392 253.417 27.392C252.927 27.392 252.5 27.5627 252.137 27.904C251.775 28.2347 251.545 28.6933 251.449 29.28ZM260.673 37.792L260.753 37.168C261.094 37.1253 261.313 37.0293 261.409 36.88C261.516 36.7413 261.569 36.4533 261.569 36.016C261.569 35.8453 261.569 35.5947 261.569 35.264C261.58 34.9333 261.585 34.5867 261.585 34.224C261.596 33.872 261.601 33.584 261.601 33.36V28.592C261.601 28.2293 261.542 27.9787 261.425 27.84C261.308 27.6907 261.105 27.616 260.817 27.616H260.641L260.593 27.552L260.641 27.024C261.014 26.96 261.372 26.896 261.713 26.832C262.054 26.7573 262.332 26.6933 262.545 26.64C262.769 26.5867 262.881 26.56 262.881 26.56L262.977 26.688C262.977 26.688 262.956 26.7787 262.913 26.96C262.87 27.1413 262.838 27.3387 262.817 27.552L262.881 27.664C263.35 27.3333 263.745 27.0773 264.065 26.896C264.396 26.7147 264.62 26.624 264.737 26.624C265.356 26.624 265.894 26.768 266.353 27.056C266.812 27.3333 267.169 27.728 267.425 28.24C267.692 28.7413 267.825 29.328 267.825 30C267.825 30.576 267.718 31.12 267.505 31.632C267.302 32.1333 267.014 32.576 266.641 32.96C266.278 33.344 265.857 33.648 265.377 33.872C264.897 34.0853 264.385 34.192 263.841 34.192C263.713 34.192 263.558 34.1867 263.377 34.176C263.196 34.1653 263.03 34.1547 262.881 34.144C262.742 34.1333 262.673 34.128 262.673 34.128C262.673 34.3947 262.673 34.6667 262.673 34.944C262.684 35.2213 262.689 35.4987 262.689 35.776C262.689 36.2667 262.737 36.5973 262.833 36.768C262.94 36.9493 263.142 37.04 263.441 37.04C263.526 37.04 263.617 37.0347 263.713 37.024C263.809 37.024 263.9 37.024 263.985 37.024L264.017 37.072L263.889 37.68C263.761 37.68 263.633 37.68 263.505 37.68C263.377 37.68 263.249 37.68 263.121 37.68C263.004 37.68 262.881 37.68 262.753 37.68C262.625 37.68 262.497 37.68 262.369 37.68C262.07 37.68 261.788 37.6853 261.521 37.696C261.265 37.7173 261.057 37.7387 260.897 37.76C260.748 37.7813 260.673 37.792 260.673 37.792ZM264.289 33.312C265.004 33.312 265.564 33.072 265.969 32.592C266.385 32.1013 266.593 31.4347 266.593 30.592C266.593 30.048 266.497 29.5627 266.305 29.136C266.124 28.6987 265.873 28.352 265.553 28.096C265.233 27.84 264.876 27.712 264.481 27.712C264.268 27.712 264.006 27.7867 263.697 27.936C263.388 28.0747 263.094 28.2613 262.817 28.496C262.796 28.9333 262.774 29.4133 262.753 29.936C262.732 30.4587 262.716 30.9867 262.705 31.52C262.694 32.0533 262.689 32.5493 262.689 33.008C262.902 33.0933 263.153 33.168 263.441 33.232C263.74 33.2853 264.022 33.312 264.289 33.312ZM274.358 34.192C273.932 34.192 273.596 34.0853 273.35 33.872C273.116 33.648 272.977 33.3227 272.934 32.896L272.87 32.88C272.614 33.136 272.369 33.36 272.134 33.552C271.91 33.7333 271.708 33.8773 271.526 33.984C271.356 34.08 271.217 34.128 271.11 34.128C270.716 34.128 270.364 34.0427 270.054 33.872C269.745 33.7013 269.5 33.4667 269.318 33.168C269.148 32.8693 269.062 32.528 269.062 32.144C269.062 31.8347 269.137 31.5627 269.286 31.328C269.446 31.0933 269.654 30.9387 269.91 30.864L272.95 30.032L272.966 29.328C272.966 28.7947 272.844 28.3787 272.598 28.08C272.353 27.7813 272.006 27.632 271.558 27.632C271.26 27.632 270.945 27.7013 270.614 27.84C270.284 27.9787 269.958 28.176 269.638 28.432L269.558 28.384L269.366 27.696C269.644 27.536 269.953 27.3707 270.294 27.2C270.636 27.0187 270.961 26.8693 271.27 26.752C271.58 26.6347 271.814 26.576 271.974 26.576C272.444 26.576 272.844 26.6613 273.174 26.832C273.505 26.992 273.756 27.2267 273.926 27.536C274.108 27.8347 274.198 28.2027 274.198 28.64C274.198 28.7787 274.182 29.0027 274.15 29.312C274.129 29.6213 274.097 29.968 274.054 30.352C274.012 30.7253 273.974 31.088 273.942 31.44C273.921 31.792 273.91 32.0853 273.91 32.32C273.91 32.5547 273.969 32.736 274.086 32.864C274.204 32.992 274.364 33.056 274.566 33.056C274.748 33.056 274.929 33.0133 275.11 32.928C275.292 32.832 275.43 32.7413 275.526 32.656L275.75 32.912C275.665 33.0507 275.548 33.2107 275.398 33.392C275.26 33.5627 275.1 33.7227 274.918 33.872C274.748 34.0213 274.561 34.128 274.358 34.192ZM271.382 33.04C271.585 33.04 271.82 32.9707 272.086 32.832C272.364 32.6827 272.614 32.496 272.838 32.272L272.918 30.64L270.742 31.296C270.433 31.392 270.278 31.616 270.278 31.968C270.278 32.2667 270.38 32.5227 270.582 32.736C270.796 32.9387 271.062 33.04 271.382 33.04ZM278.595 34.192C278.211 34.192 277.875 34.16 277.587 34.096C277.299 34.0427 277.075 33.9893 276.915 33.936C276.766 33.8827 276.691 33.856 276.691 33.856L276.643 33.744C276.665 33.6267 276.686 33.4347 276.707 33.168C276.739 32.8907 276.766 32.6027 276.787 32.304C276.819 32.0053 276.835 31.7707 276.835 31.6L277.395 31.52C277.395 32.224 277.513 32.72 277.747 33.008C277.982 33.296 278.382 33.44 278.947 33.44C279.353 33.44 279.694 33.3493 279.971 33.168C280.249 32.9867 280.387 32.7627 280.387 32.496C280.387 32.3147 280.334 32.1493 280.227 32C280.121 31.8507 279.934 31.6853 279.667 31.504C279.401 31.3227 279.022 31.104 278.531 30.848C277.923 30.5387 277.481 30.224 277.203 29.904C276.926 29.584 276.787 29.232 276.787 28.848C276.787 28.4107 276.915 28.0213 277.171 27.68C277.427 27.3387 277.779 27.072 278.227 26.88C278.675 26.6773 279.177 26.576 279.731 26.576C280.169 26.576 280.542 26.6187 280.851 26.704C281.171 26.7893 281.331 26.832 281.331 26.832L281.363 26.912C281.363 26.912 281.342 27.0027 281.299 27.184C281.267 27.3653 281.225 27.6053 281.171 27.904C281.129 28.192 281.091 28.512 281.059 28.864L280.467 28.912C280.467 28.912 280.473 28.8533 280.483 28.736C280.494 28.6187 280.499 28.5227 280.499 28.448C280.499 28.064 280.393 27.7867 280.179 27.616C279.977 27.4347 279.646 27.344 279.187 27.344C278.825 27.344 278.515 27.4293 278.259 27.6C278.014 27.7707 277.891 27.9787 277.891 28.224C277.891 28.48 277.998 28.72 278.211 28.944C278.435 29.168 278.793 29.408 279.283 29.664C279.859 29.9627 280.307 30.2347 280.627 30.48C280.958 30.7147 281.187 30.944 281.315 31.168C281.454 31.392 281.523 31.6373 281.523 31.904C281.523 32.3093 281.385 32.688 281.107 33.04C280.841 33.392 280.483 33.6747 280.035 33.888C279.598 34.0907 279.118 34.192 278.595 34.192ZM290.701 33.536C291.021 33.4507 291.25 33.328 291.389 33.168C291.527 32.9973 291.597 32.7733 291.597 32.496L291.661 29.328C291.661 28.7947 291.543 28.384 291.309 28.096C291.085 27.808 290.759 27.664 290.333 27.664C290.077 27.664 289.815 27.7173 289.549 27.824C289.282 27.9307 289.042 28.048 288.829 28.176C288.626 28.304 288.471 28.4107 288.365 28.496C288.354 28.7733 288.338 29.104 288.317 29.488C288.306 29.8613 288.29 30.2453 288.269 30.64C288.258 31.0347 288.247 31.392 288.237 31.712C288.226 32.032 288.221 32.272 288.221 32.432C288.221 32.7627 288.263 32.9973 288.349 33.136C288.445 33.264 288.594 33.328 288.797 33.328C288.893 33.328 289.01 33.3227 289.149 33.312C289.287 33.3013 289.357 33.296 289.357 33.296L289.389 33.36L289.245 34.048C289.245 34.048 289.165 34.0427 289.005 34.032C288.845 34.0213 288.653 34.0107 288.429 34C288.205 34 287.991 34 287.789 34C287.565 34 287.33 34.0053 287.085 34.016C286.839 34.0373 286.631 34.0533 286.461 34.064C286.29 34.0853 286.205 34.096 286.205 34.096L286.285 33.44C286.594 33.3867 286.813 33.2907 286.941 33.152C287.069 33.0133 287.133 32.7947 287.133 32.496V28.592C287.133 28.2293 287.074 27.9787 286.957 27.84C286.839 27.6907 286.637 27.616 286.349 27.616H286.173L286.125 27.552L286.173 27.024C286.546 26.96 286.903 26.896 287.245 26.832C287.586 26.7573 287.863 26.6933 288.077 26.64C288.301 26.5867 288.413 26.56 288.413 26.56L288.509 26.688C288.509 26.688 288.482 26.7947 288.429 27.008C288.386 27.2213 288.354 27.4667 288.333 27.744L288.365 27.792C288.461 27.728 288.61 27.632 288.813 27.504C289.026 27.3653 289.25 27.2267 289.485 27.088C289.73 26.9493 289.965 26.832 290.189 26.736C290.413 26.6293 290.589 26.576 290.717 26.576C291.389 26.576 291.922 26.7627 292.317 27.136C292.711 27.5093 292.909 28.0107 292.909 28.64C292.909 28.7787 292.898 29.008 292.877 29.328C292.855 29.648 292.829 30.0053 292.797 30.4C292.765 30.7947 292.738 31.1733 292.717 31.536C292.695 31.8987 292.685 32.1973 292.685 32.432C292.685 32.7413 292.727 32.9707 292.813 33.12C292.898 33.2587 293.042 33.328 293.245 33.328C293.341 33.328 293.458 33.3227 293.597 33.312C293.735 33.3013 293.805 33.296 293.805 33.296L293.837 33.36L293.709 34.048C293.709 34.048 293.661 34.0427 293.565 34.032C293.479 34.032 293.362 34.0267 293.213 34.016C293.074 34.016 292.919 34.0107 292.749 34C292.589 34 292.434 34 292.285 34C292.114 34 291.933 34.0107 291.741 34.032C291.559 34.0533 291.383 34.0747 291.213 34.096C291.042 34.1173 290.903 34.1387 290.797 34.16C290.69 34.1813 290.637 34.192 290.637 34.192L290.701 33.536ZM297.914 34.192C297.306 34.192 296.768 34.0427 296.298 33.744C295.829 33.4453 295.461 33.0293 295.194 32.496C294.938 31.952 294.81 31.3333 294.81 30.64C294.81 29.872 294.97 29.184 295.29 28.576C295.621 27.9573 296.069 27.472 296.634 27.12C297.2 26.7573 297.829 26.576 298.522 26.576C299.13 26.576 299.669 26.7253 300.138 27.024C300.608 27.3227 300.97 27.7387 301.226 28.272C301.493 28.8053 301.626 29.424 301.626 30.128C301.626 30.8853 301.461 31.5733 301.13 32.192C300.81 32.8107 300.368 33.3013 299.802 33.664C299.248 34.016 298.618 34.192 297.914 34.192ZM298.362 33.408C298.96 33.408 299.434 33.168 299.786 32.688C300.138 32.1973 300.314 31.536 300.314 30.704C300.314 30.064 300.218 29.4987 300.026 29.008C299.834 28.5173 299.568 28.1333 299.226 27.856C298.885 27.5787 298.49 27.44 298.042 27.44C297.445 27.44 296.97 27.6853 296.618 28.176C296.266 28.6667 296.09 29.3333 296.09 30.176C296.09 30.816 296.186 31.3813 296.378 31.872C296.57 32.352 296.837 32.7307 297.178 33.008C297.52 33.2747 297.914 33.408 298.362 33.408ZM303.643 28.448C303.643 28.1707 303.595 27.9573 303.499 27.808C303.403 27.6587 303.254 27.584 303.051 27.584C302.966 27.584 302.875 27.5947 302.779 27.616C302.694 27.6373 302.651 27.648 302.651 27.648L302.715 27.056C302.96 27.0133 303.216 26.9653 303.483 26.912C303.75 26.8587 303.995 26.8053 304.219 26.752C304.454 26.6987 304.64 26.656 304.779 26.624C304.928 26.592 305.003 26.576 305.003 26.576L305.099 26.768C305.046 26.9067 304.992 27.1467 304.939 27.488C304.896 27.8187 304.854 28.208 304.811 28.656C304.768 29.104 304.736 29.5787 304.715 30.08C304.694 30.5707 304.683 31.0507 304.683 31.52C304.683 32.5653 305.11 33.088 305.963 33.088C306.336 33.088 306.683 32.9867 307.003 32.784C307.334 32.5707 307.632 32.368 307.899 32.176V28.464C307.899 28.144 307.84 27.92 307.723 27.792C307.606 27.664 307.398 27.6 307.099 27.6C307.056 27.6 306.982 27.6053 306.875 27.616C306.768 27.616 306.715 27.616 306.715 27.616L306.779 27.04C307.067 26.9973 307.355 26.9493 307.643 26.896C307.931 26.8427 308.192 26.7947 308.427 26.752C308.672 26.6987 308.87 26.656 309.019 26.624C309.168 26.592 309.243 26.576 309.243 26.576L309.339 26.768C309.275 26.928 309.216 27.2853 309.163 27.84C309.11 28.3947 309.067 29.0667 309.035 29.856C309.003 30.6453 308.987 31.4667 308.987 32.32C308.987 32.5547 309.046 32.736 309.163 32.864C309.28 32.992 309.44 33.056 309.643 33.056C309.814 33.056 309.968 33.024 310.107 32.96C310.256 32.8853 310.374 32.816 310.459 32.752C310.555 32.688 310.603 32.656 310.603 32.656L310.827 32.912C310.827 32.912 310.779 32.976 310.683 33.104C310.598 33.232 310.48 33.3813 310.331 33.552C310.192 33.7227 310.043 33.872 309.883 34C309.723 34.128 309.574 34.192 309.435 34.192C308.571 34.192 308.096 33.76 308.011 32.896L307.931 32.864C307.419 33.2587 306.955 33.5787 306.539 33.824C306.134 34.0693 305.856 34.192 305.707 34.192C305.024 34.192 304.496 34.032 304.123 33.712C303.76 33.392 303.579 32.9333 303.579 32.336L303.643 28.448ZM313.595 34.192C313.211 34.192 312.875 34.16 312.587 34.096C312.299 34.0427 312.075 33.9893 311.915 33.936C311.766 33.8827 311.691 33.856 311.691 33.856L311.643 33.744C311.665 33.6267 311.686 33.4347 311.707 33.168C311.739 32.8907 311.766 32.6027 311.787 32.304C311.819 32.0053 311.835 31.7707 311.835 31.6L312.395 31.52C312.395 32.224 312.513 32.72 312.747 33.008C312.982 33.296 313.382 33.44 313.947 33.44C314.353 33.44 314.694 33.3493 314.971 33.168C315.249 32.9867 315.387 32.7627 315.387 32.496C315.387 32.3147 315.334 32.1493 315.227 32C315.121 31.8507 314.934 31.6853 314.667 31.504C314.401 31.3227 314.022 31.104 313.531 30.848C312.923 30.5387 312.481 30.224 312.203 29.904C311.926 29.584 311.787 29.232 311.787 28.848C311.787 28.4107 311.915 28.0213 312.171 27.68C312.427 27.3387 312.779 27.072 313.227 26.88C313.675 26.6773 314.177 26.576 314.731 26.576C315.169 26.576 315.542 26.6187 315.851 26.704C316.171 26.7893 316.331 26.832 316.331 26.832L316.363 26.912C316.363 26.912 316.342 27.0027 316.299 27.184C316.267 27.3653 316.225 27.6053 316.171 27.904C316.129 28.192 316.091 28.512 316.059 28.864L315.467 28.912C315.467 28.912 315.473 28.8533 315.483 28.736C315.494 28.6187 315.499 28.5227 315.499 28.448C315.499 28.064 315.393 27.7867 315.179 27.616C314.977 27.4347 314.646 27.344 314.187 27.344C313.825 27.344 313.515 27.4293 313.259 27.6C313.014 27.7707 312.891 27.9787 312.891 28.224C312.891 28.48 312.998 28.72 313.211 28.944C313.435 29.168 313.793 29.408 314.283 29.664C314.859 29.9627 315.307 30.2347 315.627 30.48C315.958 30.7147 316.187 30.944 316.315 31.168C316.454 31.392 316.523 31.6373 316.523 31.904C316.523 32.3093 316.385 32.688 316.107 33.04C315.841 33.392 315.483 33.6747 315.035 33.888C314.598 34.0907 314.118 34.192 313.595 34.192ZM324.389 34.192C323.717 34.192 323.13 34.048 322.629 33.76C322.127 33.4613 321.738 33.0507 321.461 32.528C321.183 31.9947 321.045 31.3707 321.045 30.656C321.045 29.888 321.205 29.2 321.525 28.592C321.855 27.9733 322.298 27.4827 322.853 27.12C323.418 26.7573 324.047 26.576 324.741 26.576C325.082 26.576 325.391 26.6027 325.669 26.656C325.957 26.6987 326.186 26.7467 326.357 26.8C326.527 26.8533 326.613 26.88 326.613 26.88L326.661 26.992C326.661 26.992 326.634 27.088 326.581 27.28C326.538 27.472 326.49 27.7387 326.437 28.08C326.383 28.4107 326.346 28.784 326.325 29.2L325.669 29.248V28.752C325.669 28.3573 325.546 28.0427 325.301 27.808C325.066 27.5627 324.751 27.44 324.357 27.44C323.706 27.44 323.205 27.6747 322.853 28.144C322.501 28.6027 322.325 29.2587 322.325 30.112C322.325 31.04 322.517 31.776 322.901 32.32C323.295 32.8533 323.829 33.12 324.501 33.12C324.799 33.12 325.087 33.0773 325.365 32.992C325.642 32.896 325.866 32.8053 326.037 32.72C326.218 32.6347 326.309 32.592 326.309 32.592L326.405 32.624L326.581 33.12C326.581 33.12 326.506 33.1733 326.357 33.28C326.207 33.3867 326.015 33.5147 325.781 33.664C325.546 33.8027 325.301 33.9253 325.045 34.032C324.799 34.1387 324.581 34.192 324.389 34.192ZM330.696 34.192C330.088 34.192 329.549 34.0427 329.08 33.744C328.61 33.4453 328.242 33.0293 327.976 32.496C327.72 31.952 327.592 31.3333 327.592 30.64C327.592 29.872 327.752 29.184 328.072 28.576C328.402 27.9573 328.85 27.472 329.416 27.12C329.981 26.7573 330.61 26.576 331.304 26.576C331.912 26.576 332.45 26.7253 332.92 27.024C333.389 27.3227 333.752 27.7387 334.008 28.272C334.274 28.8053 334.408 29.424 334.408 30.128C334.408 30.8853 334.242 31.5733 333.912 32.192C333.592 32.8107 333.149 33.3013 332.584 33.664C332.029 34.016 331.4 34.192 330.696 34.192ZM331.144 33.408C331.741 33.408 332.216 33.168 332.568 32.688C332.92 32.1973 333.096 31.536 333.096 30.704C333.096 30.064 333 29.4987 332.808 29.008C332.616 28.5173 332.349 28.1333 332.008 27.856C331.666 27.5787 331.272 27.44 330.824 27.44C330.226 27.44 329.752 27.6853 329.4 28.176C329.048 28.6667 328.872 29.3333 328.872 30.176C328.872 30.816 328.968 31.3813 329.16 31.872C329.352 32.352 329.618 32.7307 329.96 33.008C330.301 33.2747 330.696 33.408 331.144 33.408ZM340.216 33.536C340.536 33.4507 340.766 33.328 340.904 33.168C341.043 32.9973 341.112 32.7733 341.112 32.496L341.176 29.328C341.176 28.7947 341.059 28.384 340.824 28.096C340.6 27.808 340.275 27.664 339.848 27.664C339.592 27.664 339.331 27.7173 339.064 27.824C338.798 27.9307 338.558 28.048 338.344 28.176C338.142 28.304 337.987 28.4107 337.88 28.496C337.87 28.7733 337.854 29.104 337.832 29.488C337.822 29.8613 337.806 30.2453 337.784 30.64C337.774 31.0347 337.763 31.392 337.752 31.712C337.742 32.032 337.736 32.272 337.736 32.432C337.736 32.7627 337.779 32.9973 337.864 33.136C337.96 33.264 338.11 33.328 338.312 33.328C338.408 33.328 338.526 33.3227 338.664 33.312C338.803 33.3013 338.872 33.296 338.872 33.296L338.904 33.36L338.76 34.048C338.76 34.048 338.68 34.0427 338.52 34.032C338.36 34.0213 338.168 34.0107 337.944 34C337.72 34 337.507 34 337.304 34C337.08 34 336.846 34.0053 336.6 34.016C336.355 34.0373 336.147 34.0533 335.976 34.064C335.806 34.0853 335.72 34.096 335.72 34.096L335.8 33.44C336.11 33.3867 336.328 33.2907 336.456 33.152C336.584 33.0133 336.648 32.7947 336.648 32.496V28.592C336.648 28.2293 336.59 27.9787 336.472 27.84C336.355 27.6907 336.152 27.616 335.864 27.616H335.688L335.64 27.552L335.688 27.024C336.062 26.96 336.419 26.896 336.76 26.832C337.102 26.7573 337.379 26.6933 337.592 26.64C337.816 26.5867 337.928 26.56 337.928 26.56L338.024 26.688C338.024 26.688 337.998 26.7947 337.944 27.008C337.902 27.2213 337.87 27.4667 337.848 27.744L337.88 27.792C337.976 27.728 338.126 27.632 338.328 27.504C338.542 27.3653 338.766 27.2267 339 27.088C339.246 26.9493 339.48 26.832 339.704 26.736C339.928 26.6293 340.104 26.576 340.232 26.576C340.904 26.576 341.438 26.7627 341.832 27.136C342.227 27.5093 342.424 28.0107 342.424 28.64C342.424 28.7787 342.414 29.008 342.392 29.328C342.371 29.648 342.344 30.0053 342.312 30.4C342.28 30.7947 342.254 31.1733 342.232 31.536C342.211 31.8987 342.2 32.1973 342.2 32.432C342.2 32.7413 342.243 32.9707 342.328 33.12C342.414 33.2587 342.558 33.328 342.76 33.328C342.856 33.328 342.974 33.3227 343.112 33.312C343.251 33.3013 343.32 33.296 343.32 33.296L343.352 33.36L343.224 34.048C343.224 34.048 343.176 34.0427 343.08 34.032C342.995 34.032 342.878 34.0267 342.728 34.016C342.59 34.016 342.435 34.0107 342.264 34C342.104 34 341.95 34 341.8 34C341.63 34 341.448 34.0107 341.256 34.032C341.075 34.0533 340.899 34.0747 340.728 34.096C340.558 34.1173 340.419 34.1387 340.312 34.16C340.206 34.1813 340.152 34.192 340.152 34.192L340.216 33.536ZM347.046 34.192C346.321 34.192 345.809 34.048 345.51 33.76C345.211 33.4613 345.062 32.96 345.062 32.256V28.32C345.062 28.032 344.998 27.8293 344.87 27.712C344.742 27.5947 344.502 27.5307 344.15 27.52L344.086 27.424L344.166 26.944C344.422 26.816 344.667 26.672 344.902 26.512C345.147 26.3413 345.361 26.1813 345.542 26.032C345.734 25.872 345.883 25.744 345.99 25.648C346.097 25.5413 346.15 25.488 346.15 25.488L346.47 25.616C346.47 25.616 346.454 25.7173 346.422 25.92C346.401 26.1227 346.374 26.4213 346.342 26.816L348.694 26.768L348.742 26.816L348.598 27.664L346.278 27.616C346.246 28.1173 346.219 28.704 346.198 29.376C346.177 30.048 346.166 30.7947 346.166 31.616C346.166 32.16 346.257 32.544 346.438 32.768C346.63 32.992 346.955 33.104 347.414 33.104C347.681 33.104 347.926 33.056 348.15 32.96C348.385 32.864 348.502 32.816 348.502 32.816L348.662 33.232C348.662 33.232 348.598 33.28 348.47 33.376C348.342 33.472 348.182 33.584 347.99 33.712C347.809 33.84 347.627 33.952 347.446 34.048C347.275 34.144 347.142 34.192 347.046 34.192ZM354.983 34.192C354.557 34.192 354.221 34.0853 353.975 33.872C353.741 33.648 353.602 33.3227 353.559 32.896L353.495 32.88C353.239 33.136 352.994 33.36 352.759 33.552C352.535 33.7333 352.333 33.8773 352.151 33.984C351.981 34.08 351.842 34.128 351.735 34.128C351.341 34.128 350.989 34.0427 350.679 33.872C350.37 33.7013 350.125 33.4667 349.943 33.168C349.773 32.8693 349.687 32.528 349.687 32.144C349.687 31.8347 349.762 31.5627 349.911 31.328C350.071 31.0933 350.279 30.9387 350.535 30.864L353.575 30.032L353.591 29.328C353.591 28.7947 353.469 28.3787 353.223 28.08C352.978 27.7813 352.631 27.632 352.183 27.632C351.885 27.632 351.57 27.7013 351.239 27.84C350.909 27.9787 350.583 28.176 350.263 28.432L350.183 28.384L349.991 27.696C350.269 27.536 350.578 27.3707 350.919 27.2C351.261 27.0187 351.586 26.8693 351.895 26.752C352.205 26.6347 352.439 26.576 352.599 26.576C353.069 26.576 353.469 26.6613 353.799 26.832C354.13 26.992 354.381 27.2267 354.551 27.536C354.733 27.8347 354.823 28.2027 354.823 28.64C354.823 28.7787 354.807 29.0027 354.775 29.312C354.754 29.6213 354.722 29.968 354.679 30.352C354.637 30.7253 354.599 31.088 354.567 31.44C354.546 31.792 354.535 32.0853 354.535 32.32C354.535 32.5547 354.594 32.736 354.711 32.864C354.829 32.992 354.989 33.056 355.191 33.056C355.373 33.056 355.554 33.0133 355.735 32.928C355.917 32.832 356.055 32.7413 356.151 32.656L356.375 32.912C356.29 33.0507 356.173 33.2107 356.023 33.392C355.885 33.5627 355.725 33.7227 355.543 33.872C355.373 34.0213 355.186 34.128 354.983 34.192ZM352.007 33.04C352.21 33.04 352.445 32.9707 352.711 32.832C352.989 32.6827 353.239 32.496 353.463 32.272L353.543 30.64L351.367 31.296C351.058 31.392 350.903 31.616 350.903 31.968C350.903 32.2667 351.005 32.5227 351.207 32.736C351.421 32.9387 351.687 33.04 352.007 33.04ZM360.404 34.192C359.732 34.192 359.146 34.048 358.644 33.76C358.143 33.4613 357.754 33.0507 357.476 32.528C357.199 31.9947 357.06 31.3707 357.06 30.656C357.06 29.888 357.22 29.2 357.54 28.592C357.871 27.9733 358.314 27.4827 358.868 27.12C359.434 26.7573 360.063 26.576 360.756 26.576C361.098 26.576 361.407 26.6027 361.684 26.656C361.972 26.6987 362.202 26.7467 362.372 26.8C362.543 26.8533 362.628 26.88 362.628 26.88L362.676 26.992C362.676 26.992 362.65 27.088 362.596 27.28C362.554 27.472 362.506 27.7387 362.452 28.08C362.399 28.4107 362.362 28.784 362.34 29.2L361.684 29.248V28.752C361.684 28.3573 361.562 28.0427 361.316 27.808C361.082 27.5627 360.767 27.44 360.372 27.44C359.722 27.44 359.22 27.6747 358.868 28.144C358.516 28.6027 358.34 29.2587 358.34 30.112C358.34 31.04 358.532 31.776 358.916 32.32C359.311 32.8533 359.844 33.12 360.516 33.12C360.815 33.12 361.103 33.0773 361.38 32.992C361.658 32.896 361.882 32.8053 362.052 32.72C362.234 32.6347 362.324 32.592 362.324 32.592L362.42 32.624L362.596 33.12C362.596 33.12 362.522 33.1733 362.372 33.28C362.223 33.3867 362.031 33.5147 361.796 33.664C361.562 33.8027 361.316 33.9253 361.06 34.032C360.815 34.1387 360.596 34.192 360.404 34.192ZM366.562 34.192C365.836 34.192 365.324 34.048 365.026 33.76C364.727 33.4613 364.578 32.96 364.578 32.256V28.32C364.578 28.032 364.514 27.8293 364.386 27.712C364.258 27.5947 364.018 27.5307 363.666 27.52L363.602 27.424L363.682 26.944C363.938 26.816 364.183 26.672 364.418 26.512C364.663 26.3413 364.876 26.1813 365.058 26.032C365.25 25.872 365.399 25.744 365.506 25.648C365.612 25.5413 365.666 25.488 365.666 25.488L365.986 25.616C365.986 25.616 365.97 25.7173 365.938 25.92C365.916 26.1227 365.89 26.4213 365.858 26.816L368.21 26.768L368.258 26.816L368.114 27.664L365.794 27.616C365.762 28.1173 365.735 28.704 365.714 29.376C365.692 30.048 365.682 30.7947 365.682 31.616C365.682 32.16 365.772 32.544 365.954 32.768C366.146 32.992 366.471 33.104 366.93 33.104C367.196 33.104 367.442 33.056 367.666 32.96C367.9 32.864 368.018 32.816 368.018 32.816L368.178 33.232C368.178 33.232 368.114 33.28 367.986 33.376C367.858 33.472 367.698 33.584 367.506 33.712C367.324 33.84 367.143 33.952 366.962 34.048C366.791 34.144 366.658 34.192 366.562 34.192ZM372.483 34.192C371.811 34.192 371.224 34.0427 370.723 33.744C370.222 33.4453 369.827 33.0347 369.539 32.512C369.262 31.9787 369.123 31.36 369.123 30.656C369.123 30.112 369.214 29.5947 369.395 29.104C369.587 28.6133 369.848 28.1813 370.179 27.808C370.51 27.424 370.883 27.1253 371.299 26.912C371.726 26.688 372.179 26.576 372.659 26.576C374.248 26.576 375.043 27.3493 375.043 28.896C375.043 29.0347 375.032 29.1787 375.011 29.328C374.99 29.4773 374.968 29.5947 374.947 29.68L374.739 29.872H370.323C370.312 30.8213 370.483 31.5733 370.835 32.128C371.198 32.672 371.704 32.992 372.355 33.088C373.006 33.1733 373.774 33.0133 374.659 32.608L374.755 32.64L374.931 33.104C374.718 33.2533 374.462 33.4133 374.163 33.584C373.875 33.7547 373.582 33.8987 373.283 34.016C372.984 34.1333 372.718 34.192 372.483 34.192ZM370.387 29.28L373.283 29.136C373.443 29.1147 373.55 29.0773 373.603 29.024C373.656 28.9707 373.683 28.864 373.683 28.704C373.683 28.2773 373.566 27.952 373.331 27.728C373.107 27.504 372.782 27.392 372.355 27.392C371.864 27.392 371.438 27.5627 371.075 27.904C370.712 28.2347 370.483 28.6933 370.387 29.28ZM376.663 33.424C376.983 33.392 377.196 33.2907 377.303 33.12C377.409 32.9387 377.463 32.5973 377.463 32.096V28.576C377.463 28.224 377.415 27.9733 377.319 27.824C377.223 27.6747 377.068 27.6 376.855 27.6C376.769 27.6 376.689 27.6107 376.615 27.632C376.551 27.6427 376.519 27.648 376.519 27.648L376.439 27.536L376.487 27.04C376.817 26.976 377.148 26.9067 377.479 26.832C377.809 26.7573 378.087 26.6933 378.311 26.64C378.535 26.5867 378.647 26.56 378.647 26.56L378.759 26.656C378.759 26.656 378.743 26.7413 378.711 26.912C378.689 27.0827 378.668 27.296 378.647 27.552C378.625 27.7973 378.615 28.048 378.615 28.304L378.679 28.352C379.009 27.8507 379.388 27.44 379.815 27.12C380.241 26.8 380.615 26.64 380.935 26.64C381.116 26.64 381.244 26.6507 381.319 26.672C381.393 26.6933 381.431 26.704 381.431 26.704L381.479 26.768C381.479 26.768 381.468 26.8427 381.447 26.992C381.425 27.1307 381.399 27.3173 381.367 27.552C381.335 27.776 381.303 28.0213 381.271 28.288C381.249 28.5547 381.233 28.8107 381.223 29.056L380.599 29.104C380.599 28.6667 380.572 28.3787 380.519 28.24C380.465 28.0907 380.348 28.016 380.167 28.016C379.932 28.016 379.681 28.112 379.415 28.304C379.148 28.496 378.903 28.7627 378.679 29.104C378.679 29.104 378.673 29.2053 378.663 29.408C378.652 29.6 378.641 29.8453 378.631 30.144C378.62 30.4427 378.609 30.752 378.599 31.072C378.588 31.3813 378.577 31.6587 378.567 31.904C378.556 32.1387 378.551 32.2933 378.551 32.368C378.551 32.7307 378.604 32.976 378.711 33.104C378.817 33.232 379.02 33.296 379.319 33.296C379.436 33.296 379.58 33.2907 379.751 33.28C379.932 33.2693 380.023 33.264 380.023 33.264L380.039 33.328L379.895 34.032C379.895 34.032 379.841 34.0267 379.735 34.016C379.628 34.016 379.489 34.016 379.319 34.016C379.148 34.016 378.967 34.0107 378.775 34C378.593 34 378.423 34 378.263 34C377.953 34 377.671 34.0053 377.415 34.016C377.159 34.0267 376.956 34.0373 376.807 34.048C376.657 34.0587 376.583 34.064 376.583 34.064L376.663 33.424ZM382.947 34.192C382.648 34.192 382.424 34.1013 382.275 33.92C382.125 33.728 382.051 33.5147 382.051 33.28C382.051 33.0027 382.141 32.768 382.323 32.576C382.504 32.384 382.744 32.288 383.043 32.288C383.341 32.288 383.565 32.3787 383.715 32.56C383.875 32.7413 383.955 32.9547 383.955 33.2C383.955 33.4667 383.864 33.7013 383.683 33.904C383.501 34.096 383.256 34.192 382.947 34.192Z" fill="black"/>
</svg>
